#N canvas 0 23 902 782 10;
#X obj 111 76 bng 15 250 50 0 empty empty empty 17 7 0 10 -262144 -1
-1;
#X obj 189 472 random 3;
#X obj 189 493 sel 0 1 2;
#X msg 189 514 2;
#X msg 215 514 3;
#X msg 242 514 5;
#X obj 174 550 *;
#X obj 164 402 random 3;
#X obj 164 423 sel 0 1 2;
#X msg 164 444 2;
#X msg 190 444 3;
#X msg 217 444 5;
#X obj 149 480 *;
#X obj 153 320 random 3;
#X obj 153 341 sel 0 1 2;
#X msg 153 362 2;
#X msg 179 362 3;
#X msg 206 362 5;
#X obj 138 398 *;
#X obj 136 241 random 3;
#X obj 136 262 sel 0 1 2;
#X msg 136 283 2;
#X msg 162 283 3;
#X msg 189 283 5;
#X obj 121 319 *;
#X obj 125 159 random 3;
#X obj 125 180 sel 0 1 2;
#X msg 125 201 2;
#X msg 151 201 3;
#X msg 178 201 5;
#X obj 110 237 *;
#X msg 111 117 1;
#X obj 111 96 t b b b b b b;
#X obj 114 52 inlet;
#X obj 174 724 outlet~;
#X obj 232 556 r stevetime;
#X obj 174 623 phasor~;
#X obj 174 644 *~ 44097;
#X obj 174 665 +~ 1;
#X obj 174 686 tabread4~ foys;
#X obj 174 600 /;
#X obj 173 571 swap;
#X connect 0 0 32 0;
#X connect 1 0 2 0;
#X connect 2 0 3 0;
#X connect 2 1 4 0;
#X connect 2 2 5 0;
#X connect 3 0 6 1;
#X connect 4 0 6 1;
#X connect 5 0 6 1;
#X connect 6 0 41 0;
#X connect 7 0 8 0;
#X connect 8 0 9 0;
#X connect 8 1 10 0;
#X connect 8 2 11 0;
#X connect 9 0 12 1;
#X connect 10 0 12 1;
#X connect 11 0 12 1;
#X connect 12 0 6 0;
#X connect 13 0 14 0;
#X connect 14 0 15 0;
#X connect 14 1 16 0;
#X connect 14 2 17 0;
#X connect 15 0 18 1;
#X connect 16 0 18 1;
#X connect 17 0 18 1;
#X connect 18 0 12 0;
#X connect 19 0 20 0;
#X connect 20 0 21 0;
#X connect 20 1 22 0;
#X connect 20 2 23 0;
#X connect 21 0 24 1;
#X connect 22 0 24 1;
#X connect 23 0 24 1;
#X connect 24 0 18 0;
#X connect 25 0 26 0;
#X connect 26 0 27 0;
#X connect 26 1 28 0;
#X connect 26 2 29 0;
#X connect 27 0 30 1;
#X connect 28 0 30 1;
#X connect 29 0 30 1;
#X connect 30 0 24 0;
#X connect 31 0 30 0;
#X connect 32 0 31 0;
#X connect 32 1 25 0;
#X connect 32 2 19 0;
#X connect 32 3 13 0;
#X connect 32 4 7 0;
#X connect 32 5 1 0;
#X connect 33 0 0 0;
#X connect 35 0 41 1;
#X connect 36 0 37 0;
#X connect 37 0 38 0;
#X connect 38 0 39 0;
#X connect 39 0 34 0;
#X connect 40 0 36 0;
#X connect 41 0 40 0;
#X connect 41 1 40 1;
