#N canvas -84 23 979 833 10;
#X obj 312 360 r maxgrain;
#X obj 376 360 r mingrain;
#X obj 313 407 -;
#X obj 280 425 random;
#X obj 280 462 +;
#X obj 376 376 t f b f;
#X obj 259 480 *~;
#X obj 313 442 r width;
#X obj 313 499 *;
#X obj 369 441 r samps;
#X obj 320 483 t b f;
#X obj 280 515 random;
#X obj 320 562 *;
#X obj 344 548 t b f;
#X obj 320 515 -;
#X obj 320 531 abs;
#X obj 280 595 +;
#X obj 320 594 t b f;
#X obj 388 499 /;
#X obj 403 483 t b f;
#X obj 388 515 - 1;
#X obj 388 531 abs;
#X obj 388 547 t b f;
#X obj 320 578 *;
#X obj 442 478 /;
#X obj 442 457 t b f;
#X obj 442 526 /;
#X obj 442 494 t b f;
#X msg 442 510 1;
#X obj 476 494 loadbang;
#X obj 442 547 *;
#X obj 476 510 randharmonicg;
#X obj 476 526 t b f;
#X obj 241 179 phasor~;
#X obj 262 200 threshold~ 0.5 10 0.5 10;
#X obj 619 597 *;
#X obj 619 569 t b f;
#X obj 231 586 cos~;
#X obj 231 554 *~ 0.5;
#X obj 231 570 -~ 0.25;
#X obj 231 649 *~;
#X obj 259 612 +~;
#X obj 259 633 tabread4~ quan;
#X obj 343 527 f;
#X obj 317 461 f;
#X obj 313 391 f;
#X obj 280 371 b;
#X obj 231 670 /~;
#X obj 351 654 * 8;
#X obj 351 613 loadbang;
#X obj 280 339 loadbang;
#X obj 137 63 inlet~;
#X obj 137 718 outlet~;
#X obj 445 65 inlet;
#X obj 444 701 outlet;
#X obj 615 63 inlet;
#X obj 633 693 outlet;
#X msg 351 633 1;
#X obj 711 64 inlet;
#X obj 714 694 outlet;
#X connect 0 0 45 1;
#X connect 1 0 5 0;
#X connect 2 0 3 1;
#X connect 3 0 4 0;
#X connect 4 0 6 1;
#X connect 4 0 24 0;
#X connect 5 0 4 1;
#X connect 5 1 2 0;
#X connect 5 2 2 1;
#X connect 6 0 41 0;
#X connect 7 0 44 1;
#X connect 8 0 11 1;
#X connect 8 0 14 0;
#X connect 9 0 10 0;
#X connect 9 0 19 0;
#X connect 9 0 25 0;
#X connect 10 0 8 0;
#X connect 10 0 14 0;
#X connect 10 1 8 1;
#X connect 10 1 14 1;
#X connect 11 0 16 0;
#X connect 12 0 23 0;
#X connect 13 0 12 0;
#X connect 13 1 12 1;
#X connect 14 0 15 0;
#X connect 15 0 12 0;
#X connect 16 0 41 1;
#X connect 17 0 16 0;
#X connect 17 1 16 1;
#X connect 18 0 20 0;
#X connect 19 0 18 0;
#X connect 19 1 18 1;
#X connect 20 0 21 0;
#X connect 21 0 22 0;
#X connect 22 0 23 0;
#X connect 22 1 23 1;
#X connect 23 0 17 0;
#X connect 24 0 27 0;
#X connect 25 0 24 0;
#X connect 25 1 24 1;
#X connect 26 0 30 0;
#X connect 27 0 28 0;
#X connect 27 1 26 1;
#X connect 28 0 26 0;
#X connect 29 0 28 0;
#X connect 29 0 31 0;
#X connect 30 0 35 0;
#X connect 31 0 32 0;
#X connect 32 0 30 0;
#X connect 32 1 30 1;
#X connect 33 0 6 0;
#X connect 33 0 34 0;
#X connect 33 0 38 0;
#X connect 34 1 46 0;
#X connect 35 0 33 0;
#X connect 36 0 35 0;
#X connect 36 1 35 1;
#X connect 37 0 40 0;
#X connect 38 0 39 0;
#X connect 39 0 37 0;
#X connect 40 0 47 0;
#X connect 41 0 42 0;
#X connect 42 0 40 1;
#X connect 43 0 13 0;
#X connect 44 0 8 0;
#X connect 45 0 18 0;
#X connect 45 0 2 0;
#X connect 46 0 45 0;
#X connect 46 0 3 0;
#X connect 46 0 44 0;
#X connect 46 0 11 0;
#X connect 46 0 43 0;
#X connect 46 0 31 0;
#X connect 47 0 52 0;
#X connect 48 0 47 1;
#X connect 49 0 57 0;
#X connect 50 0 46 0;
#X connect 51 0 52 0;
#X connect 53 0 46 0;
#X connect 53 0 54 0;
#X connect 55 0 36 0;
#X connect 55 0 56 0;
#X connect 57 0 48 0;
#X connect 58 0 59 0;
#X connect 58 0 43 1;
