#N canvas 7 23 1433 851 10;
#X obj 654 454 *~;
#X obj 668 435 / 100;
#X obj 655 390 hip~ 10;
#X obj 655 506 delwrite~ magn 5002;
#X obj 668 412 r grainfeeds;
#N canvas 854 23 369 796 fft-analysis 0;
#X obj 15 164 *~;
#X obj 14 198 rfft~;
#X obj 19 674 *~;
#X obj 20 592 rifft~;
#X obj 19 702 outlet~;
#X obj 37 649 tabreceive~ hanning;
#X obj 36 140 tabreceive~ hanning;
#X obj 14 99 inlet~;
#X text 203 144 windowing;
#X obj 21 318 tabreceive~ delay;
#X obj 20 394 -~;
#X obj 58 369 wrap~;
#X obj 20 471 /~ 44.1;
#X obj 20 514 vd~ ar1;
#X obj 89 514 vd~ ar2;
#X text 215 230 fft-Analysis is;
#X text 191 253 writte to the;
#X text 201 275 buffers;
#X text 164 322 delay array uses buffer;
#X text 165 344 to determine reading;
#X text 167 365 position;
#X text 65 396 only integers \, jump to bin no.;
#X text 88 441 every bin is 512 samples in size;
#X text 86 470 conversion to milliseconds;
#X text 161 513 reading buffers;
#X text 79 592 resynthesis;
#X text 84 621 normalization;
#X text 205 647 final windowing;
#X obj 49 228 delwrite~ ar2 40000;
#X obj 14 256 delwrite~ ar1 40000;
#X obj 14 32 block~ 512 4;
#X obj 19 442 *~ 512;
#X obj 20 621 /~ 768;
#X connect 0 0 1 0;
#X connect 1 0 29 0;
#X connect 1 1 28 0;
#X connect 2 0 4 0;
#X connect 3 0 32 0;
#X connect 5 0 2 1;
#X connect 6 0 0 1;
#X connect 7 0 0 0;
#X connect 9 0 10 0;
#X connect 9 0 11 0;
#X connect 10 0 31 0;
#X connect 11 0 10 1;
#X connect 12 0 13 0;
#X connect 12 0 14 0;
#X connect 13 0 3 0;
#X connect 14 0 3 1;
#X connect 31 0 12 0;
#X connect 32 0 2 0;
#X restore 710 544 pd fft-analysis;
#X obj 710 568 lop~;
#X obj 710 592 lop~;
#X obj 710 616 lop~;
#X obj 710 640 lop~;
#X obj 800 619 mtof;
#X obj 655 363 *~ 0.2;
#X obj 825 286 inlet~;
#X obj 575 765 outlet~;
#X obj 800 593 r ghost_cut;
#N canvas 0 23 1425 831 vis 0;
#X obj 294 438 t b f;
#X obj 215 449 +;
#X obj 215 474 t b f;
#X obj 215 505 +;
#X obj 151 415 * -65536;
#X obj 228 416 * -256;
#X obj 294 416 * -1;
#X obj 215 536 - 1;
#X obj 25 294 expr~ if($v1 > 0.5 \, $v1 * -1 + 1 \, $v1)*510;
#X obj 291 291 expr~ if($v1 > 0.5 \, $v1 * -1 + 1 \, $v1)*510;
#X obj 565 289 expr~ if($v1 > 0.5 \, $v1 * -1 + 1 \, $v1)*510;
#X obj 565 310 snapshot~;
#X obj 291 312 snapshot~;
#X obj 27 324 snapshot~;
#X obj 150 223 metro 42;
#X obj 152 189 tgl 15 0 empty empty empty 17 7 0 10 -262144 -1 -1 1
1;
#X obj 27 345 int;
#X obj 291 333 int;
#X obj 565 331 int;
#X obj 210 613 s corn;
#X msg 215 557 color \$1;
#X obj 291 270 phasor~ 0.11;
#X obj 565 268 phasor~ 0.12;
#X obj 25 273 phasor~ 0.1;
#X obj 153 164 loadbang;
#X obj 698 589 t b f;
#X obj 619 600 +;
#X obj 619 625 t b f;
#X obj 619 656 +;
#X obj 555 566 * -65536;
#X obj 632 567 * -256;
#X obj 698 567 * -1;
#X obj 619 687 - 1;
#X obj 429 445 expr~ if($v1 > 0.5 \, $v1 * -1 + 1 \, $v1)*510;
#X obj 695 442 expr~ if($v1 > 0.5 \, $v1 * -1 + 1 \, $v1)*510;
#X obj 969 440 expr~ if($v1 > 0.5 \, $v1 * -1 + 1 \, $v1)*510;
#X obj 969 461 snapshot~;
#X obj 695 463 snapshot~;
#X obj 431 475 snapshot~;
#X obj 431 496 int;
#X obj 695 484 int;
#X obj 969 482 int;
#X msg 619 708 color \$1;
#X obj 619 729 s freaks;
#X obj 429 424 phasor~ 10;
#X obj 695 421 phasor~ 11;
#X obj 969 419 phasor~ 12;
#X connect 0 0 1 0;
#X connect 0 1 1 1;
#X connect 1 0 2 0;
#X connect 2 0 3 0;
#X connect 2 1 3 1;
#X connect 3 0 7 0;
#X connect 4 0 3 0;
#X connect 5 0 1 0;
#X connect 6 0 0 0;
#X connect 7 0 20 0;
#X connect 8 0 13 0;
#X connect 9 0 12 0;
#X connect 10 0 11 0;
#X connect 11 0 18 0;
#X connect 12 0 17 0;
#X connect 13 0 16 0;
#X connect 14 0 13 0;
#X connect 14 0 12 0;
#X connect 14 0 11 0;
#X connect 14 0 38 0;
#X connect 14 0 37 0;
#X connect 14 0 36 0;
#X connect 15 0 14 0;
#X connect 16 0 4 0;
#X connect 17 0 5 0;
#X connect 18 0 6 0;
#X connect 20 0 19 0;
#X connect 21 0 9 0;
#X connect 22 0 10 0;
#X connect 23 0 8 0;
#X connect 24 0 15 0;
#X connect 25 0 26 0;
#X connect 25 1 26 1;
#X connect 26 0 27 0;
#X connect 27 0 28 0;
#X connect 27 1 28 1;
#X connect 28 0 32 0;
#X connect 29 0 28 0;
#X connect 30 0 26 0;
#X connect 31 0 25 0;
#X connect 32 0 42 0;
#X connect 33 0 38 0;
#X connect 34 0 37 0;
#X connect 35 0 36 0;
#X connect 36 0 41 0;
#X connect 37 0 40 0;
#X connect 38 0 39 0;
#X connect 39 0 29 0;
#X connect 40 0 30 0;
#X connect 41 0 31 0;
#X connect 42 0 43 0;
#X connect 44 0 33 0;
#X connect 45 0 34 0;
#X connect 46 0 35 0;
#X restore 799 221 pd vis;
#X obj 710 661 expr~ atan($v1);
#X obj 655 341 catch~ busserl;
#N canvas 0 23 1341 851 gutso 0;
#X obj 914 584 noise~;
#X obj 914 605 abs~;
#X obj 914 626 *~;
#X obj 914 647 +~;
#X obj 914 668 s~ sourcenoise;
#X obj 325 119 bng 15 250 50 0 empty empty empty 17 7 0 10 -262144
-1 -1;
#X obj 324 137 s rands;
#X obj 958 565 *;
#X obj 970 540 t b f;
#X obj 970 498 - 1;
#X obj 970 519 abs;
#X obj 958 586 + 2;
#X obj 991 588 *;
#X obj 1032 518 t b f;
#X floatatom 991 609 5 0 0 0 - - -;
#X floatatom 966 626 5 0 0 0 - - -;
#X obj 320 72 loadbang;
#X obj 320 93 del 5;
#X obj 1114 506 r gdelay_time;
#X obj 1051 469 r gdelay_span;
#N canvas 35 66 604 445 Hann-window 0;
#N canvas 0 0 450 300 (subpatch) 0;
#X array hanning 512 float 0;
#X coords 0 1 511 0 200 120 1;
#X restore 293 249 graph;
#X msg 171 263 0;
#X obj 65 312 osc~;
#X obj 65 264 samplerate~;
#X obj 65 335 *~ -0.5;
#X obj 65 358 +~ 0.5;
#X text 279 241 1;
#X text 272 359 0;
#X text 288 372 0;
#X obj 57 241 bng 15 250 50 0 empty empty empty 0 -6 0 8 -262144 -1
-1;
#X text 336 221 Hann window;
#X text 113 310 period 512;
#X text 90 215 recalculate Hann;
#X text 125 230 window table;
#X obj 57 146 loadbang;
#X msg 79 179 \; pd dsp 1;
#X text 40 27 The Hann window is now recomputed on 'loadbang' to make
the file smaller (it doesn't have to be saved with the array.);
#X text 474 375 511;
#X obj 57 383 tabwrite~ hanning;
#X obj 65 288 / 512;
#X connect 1 0 2 1;
#X connect 2 0 4 0;
#X connect 3 0 19 0;
#X connect 4 0 5 0;
#X connect 5 0 18 0;
#X connect 9 0 3 0;
#X connect 9 0 1 0;
#X connect 9 0 18 0;
#X connect 14 0 9 0;
#X connect 14 0 15 0;
#X connect 19 0 2 0;
#X restore 1092 659 pd Hann-window;
#X obj 773 109 graindels;
#X obj 773 128 graindels;
#X obj 773 147 graindels;
#X obj 773 166 graindels;
#X obj 773 185 graindels;
#X obj 773 204 graindels;
#X obj 773 223 graindels;
#X obj 773 242 graindels;
#X obj 834 109 graindels;
#X obj 834 128 graindels;
#X obj 834 147 graindels;
#X obj 834 166 graindels;
#X obj 834 185 graindels;
#X obj 834 204 graindels;
#X obj 834 223 graindels;
#X obj 834 242 graindels;
#X obj 773 262 graindels;
#X obj 773 281 graindels;
#X obj 773 300 graindels;
#X obj 773 319 graindels;
#X obj 773 338 graindels;
#X obj 773 357 graindels;
#X obj 773 376 graindels;
#X obj 773 395 graindels;
#X obj 834 262 graindels;
#X obj 834 281 graindels;
#X obj 834 300 graindels;
#X obj 834 319 graindels;
#X obj 834 338 graindels;
#X obj 834 357 graindels;
#X obj 834 376 graindels;
#X obj 834 395 graindels;
#X obj 909 108 graindelsster;
#X obj 909 127 graindelsster;
#X obj 909 147 graindelsster;
#X obj 909 166 graindelsster;
#X obj 909 185 graindelsster;
#X obj 909 204 graindelsster;
#X obj 909 224 graindelsster;
#X obj 909 243 graindelsster;
#X obj 909 262 graindelsster;
#X obj 909 281 graindelsster;
#X obj 909 301 graindelsster;
#X obj 909 320 graindelsster;
#X obj 909 339 graindelsster;
#X obj 909 358 graindelsster;
#X obj 909 378 graindelsster;
#X obj 909 397 graindelsster;
#X obj 995 108 graindelsster;
#X obj 995 127 graindelsster;
#X obj 995 147 graindelsster;
#X obj 995 166 graindelsster;
#X obj 995 185 graindelsster;
#X obj 995 204 graindelsster;
#X obj 995 224 graindelsster;
#X obj 995 243 graindelsster;
#X obj 995 262 graindelsster;
#X obj 995 281 graindelsster;
#X obj 995 301 graindelsster;
#X obj 995 320 graindelsster;
#X obj 995 339 graindelsster;
#X obj 995 358 graindelsster;
#X obj 995 378 graindelsster;
#X obj 995 397 graindelsster;
#X floatatom 398 580 5 0 0 0 - - -;
#X obj 186 200 sqrt;
#X obj 186 242 * 3.14159;
#X obj 73 68 until;
#X obj 73 89 f;
#X obj 73 110 + 1;
#X obj 73 131 mod 256;
#X obj 125 152 sel 0;
#X obj 81 44 bng 15 250 50 0 empty updatetable empty 17 7 0 10 -262144
-1 -1;
#X obj 380 300 + 1;
#X obj 186 221 /;
#X obj 380 279 cos;
#X obj 380 215 * 6.28318;
#X obj 380 236 t b f;
#X obj 380 257 +;
#X obj 380 321 *;
#X obj 417 297 t b f;
#X obj 417 277 / 2;
#X obj 450 315 swap 1;
#X obj 450 340 -;
#X obj 478 386 *;
#X obj 478 361 t b f;
#X obj 380 451 +;
#X obj 478 407 t b f;
#X obj 270 340 * 856;
#X obj 272 380 swap 856;
#X obj 271 401 -;
#X obj 380 472 *;
#X obj 271 422 t b f;
#X obj 276 565 +;
#X obj 155 521 random;
#X obj 276 586 int;
#X obj 307 565 +;
#X obj 307 586 int;
#X obj 200 520 random;
#X obj 276 633 tabwrite delay;
#X obj 307 613 tabwrite delayl;
#X obj 236 198 r wraithfreq;
#X obj 388 189 r wraithphase;
#X obj 361 199 bng 15 250 50 0 updatetable empty empty 17 7 0 10 -262144
-1 -1;
#X obj 219 221 bng 15 250 50 0 updatetable empty empty 17 7 0 10 -262144
-1 -1;
#X obj 450 245 r wraithwidth;
#X obj 457 283 bng 15 250 50 0 updatetable empty empty 17 7 0 10 -262144
-1 -1;
#X obj 290 321 bng 15 250 50 0 updatetable empty empty 17 7 0 10 -262144
-1 -1;
#X obj 270 295 r wraithrandoms;
#X obj 478 281 r wraithoffset;
#X obj 497 302 bng 15 250 50 0 updatetable empty empty 17 7 0 10 -262144
-1 -1;
#X obj 380 496 t b f;
#X connect 0 0 1 0;
#X connect 1 0 2 0;
#X connect 2 0 3 0;
#X connect 3 0 4 0;
#X connect 5 0 6 0;
#X connect 7 0 11 0;
#X connect 8 0 7 0;
#X connect 8 1 7 1;
#X connect 9 0 10 0;
#X connect 10 0 8 0;
#X connect 11 0 15 0;
#X connect 12 0 14 0;
#X connect 13 0 12 0;
#X connect 13 1 12 1;
#X connect 14 0 2 1;
#X connect 15 0 3 1;
#X connect 16 0 17 0;
#X connect 17 0 5 0;
#X connect 18 0 12 0;
#X connect 18 0 7 0;
#X connect 19 0 13 0;
#X connect 19 0 9 0;
#X connect 85 0 120 1;
#X connect 85 0 121 1;
#X connect 86 0 95 0;
#X connect 87 0 99 0;
#X connect 88 0 89 0;
#X connect 88 0 115 0;
#X connect 88 0 119 0;
#X connect 89 0 90 0;
#X connect 90 0 89 1;
#X connect 90 0 91 0;
#X connect 91 0 92 0;
#X connect 91 0 85 0;
#X connect 91 0 86 0;
#X connect 92 0 88 1;
#X connect 93 0 88 0;
#X connect 93 0 5 0;
#X connect 94 0 100 0;
#X connect 95 0 87 0;
#X connect 96 0 94 0;
#X connect 97 0 98 0;
#X connect 98 0 99 0;
#X connect 98 1 99 1;
#X connect 99 0 96 0;
#X connect 100 0 107 0;
#X connect 101 0 100 0;
#X connect 101 1 100 1;
#X connect 102 0 101 0;
#X connect 103 0 104 0;
#X connect 103 1 104 1;
#X connect 104 0 105 0;
#X connect 105 0 108 0;
#X connect 106 0 105 0;
#X connect 106 1 105 1;
#X connect 107 0 112 0;
#X connect 108 0 107 0;
#X connect 108 1 107 1;
#X connect 109 0 110 0;
#X connect 109 0 115 1;
#X connect 109 0 119 1;
#X connect 110 0 111 0;
#X connect 110 1 111 1;
#X connect 111 0 113 0;
#X connect 112 0 132 0;
#X connect 113 0 112 0;
#X connect 113 1 112 1;
#X connect 114 0 116 0;
#X connect 115 0 114 0;
#X connect 116 0 120 0;
#X connect 117 0 118 0;
#X connect 118 0 121 0;
#X connect 119 0 117 0;
#X connect 122 0 95 1;
#X connect 122 0 125 0;
#X connect 123 0 97 0;
#X connect 123 0 124 0;
#X connect 126 0 103 0;
#X connect 126 0 102 0;
#X connect 126 0 127 0;
#X connect 129 0 128 0;
#X connect 129 0 109 0;
#X connect 130 0 106 0;
#X connect 130 0 131 0;
#X connect 132 0 114 0;
#X connect 132 0 117 0;
#X connect 132 1 117 1;
#X connect 132 1 114 1;
#X restore 799 241 pd gutso;
#N canvas 494 47 946 627 fft-analysisster 0;
#X obj 15 164 *~;
#X obj 14 198 rfft~;
#X obj 19 674 *~;
#X obj 20 592 rifft~;
#X obj 19 702 outlet~;
#X obj 37 649 tabreceive~ hanning;
#X obj 36 140 tabreceive~ hanning;
#X obj 14 99 inlet~;
#X text 203 144 windowing;
#X obj 20 394 -~;
#X obj 58 369 wrap~;
#X obj 20 471 /~ 44.1;
#X text 215 230 fft-Analysis is;
#X text 191 253 writte to the;
#X text 201 275 buffers;
#X text 164 322 delay array uses buffer;
#X text 165 344 to determine reading;
#X text 167 365 position;
#X text 65 396 only integers \, jump to bin no.;
#X text 88 441 every bin is 512 samples in size;
#X text 86 470 conversion to milliseconds;
#X text 161 513 reading buffers;
#X text 79 592 resynthesis;
#X text 84 621 normalization;
#X text 205 647 final windowing;
#X obj 14 32 block~ 512 4;
#X obj 19 442 *~ 512;
#X obj 20 621 /~ 768;
#X obj 49 228 delwrite~ al2 40000;
#X obj 14 256 delwrite~ al1 40000;
#X obj 20 514 vd~ al1;
#X obj 89 514 vd~ al2;
#X obj 21 318 tabreceive~ delayl;
#X connect 0 0 1 0;
#X connect 1 0 29 0;
#X connect 1 1 28 0;
#X connect 2 0 4 0;
#X connect 3 0 27 0;
#X connect 5 0 2 1;
#X connect 6 0 0 1;
#X connect 7 0 0 0;
#X connect 9 0 26 0;
#X connect 10 0 9 1;
#X connect 11 0 30 0;
#X connect 11 0 31 0;
#X connect 26 0 11 0;
#X connect 27 0 2 0;
#X connect 30 0 3 0;
#X connect 31 0 3 1;
#X connect 32 0 9 0;
#X connect 32 0 10 0;
#X restore 1017 537 pd fft-analysisster;
#X obj 993 448 *~;
#X obj 1007 429 / 100;
#X obj 994 384 hip~ 10;
#X obj 1007 406 r grainfeeds;
#X obj 994 357 *~ 0.2;
#X obj 994 335 catch~ busserr;
#X obj 994 500 delwrite~ magnr 5002;
#X obj 1019 568 lop~;
#X obj 1019 592 lop~;
#X obj 1019 616 lop~;
#X obj 1019 640 lop~;
#X obj 1109 619 mtof;
#X obj 882 775 outlet~;
#X obj 1109 593 r ghost_cut;
#X obj 1019 661 expr~ atan($v1);
#X obj 1139 288 inlet~;
#X obj 119 216 scoper;
#X obj 119 216 scoper;
#N canvas 0 0 454 304 (subpatch) 0;
#X array delayl 256 float 3;
#A 0 31 155 181 132 90 45 25 22 23 20 44 70 95 109 143 158 171 187
186 176 174 165 151 137 117 83 73 68 51 33 13 6 24 18 23 26 23 54 54
61 87 88 121 137 126 148 161 153 186 172 169 196 171 184 169 167 163
167 151 132 130 106 97 102 82 76 71 51 35 37 28 17 3 17 22 16 27 28
27 16 31 40 57 67 52 61 76 101 101 126 119 118 153 149 145 163 166
179 185 193 181 189 196 195 187 184 180 168 174 166 149 159 136 123
130 118 122 113 99 86 67 72 72 51 46 46 46 44 16 37 21 21 17 16 5 0
26 11 12 28 40 40 31 42 57 41 57 59 60 69 92 88 96 121 109 113 137
146 148 157 155 167 167 169 173 178 184 184 180 193 197 179 184 192
174 170 161 183 179 157 165 152 156 133 124 134 117 122 102 117 100
93 73 69 59 59 49 42 62 49 39 19 32 36 34 23 9 18 19 21 3 9 17 5 16
9 19 15 27 43 48 41 34 47 38 71 65 54 73 89 84 87 86 96 111 128 133
129 132 134 142 136 159 156 172 177 166 170 176 177 185 174 179 189
182 196;
#X coords 0 856 256 1 256 256 2 0 0;
#X restore 102 144 graph;
#N canvas 0 0 454 304 (subpatch) 0;
#X array delay 256 float 3;
#A 0 19 182 165 135 114 71 31 28 19 33 41 70 102 127 137 161 169 170
179 175 156 159 145 131 95 88 70 42 46 37 8 29 26 3 14 35 35 46 53
62 94 83 121 128 150 155 160 159 187 179 181 175 175 183 172 180 175
140 148 146 132 127 105 84 78 67 44 57 31 34 19 30 13 5 28 19 8 12
13 27 18 43 56 45 50 59 82 88 89 124 110 130 139 160 168 165 173 164
161 186 169 171 194 176 178 175 179 172 153 173 146 145 132 124 128
115 100 103 82 94 74 57 65 52 33 47 43 36 36 31 34 20 21 21 9 24 18
12 33 22 15 28 49 34 44 40 52 64 77 76 104 101 89 117 125 120 130 138
150 139 145 156 175 162 169 184 176 175 178 183 195 181 194 173 178
166 161 181 179 157 144 137 142 135 146 133 133 123 119 100 92 94 92
68 64 62 57 56 38 51 33 33 34 32 14 13 5 15 10 16 3 21 18 20 23 12
36 9 34 24 30 42 46 33 43 61 54 55 70 87 85 80 108 111 101 105 121
141 142 131 145 156 137 165 147 152 167 157 169 185 187 181 171 176
168 195;
#X coords 0 856 256 1 256 256 2 0 0;
#X restore 102 144 graph;
#X obj 639 652 r mix;
#X obj 586 682 *~;
#X obj 580 715 +~;
#X obj 639 673 - 1;
#X obj 639 694 abs;
#X obj 639 715 *~;
#X obj 938 662 r mix;
#X obj 885 692 *~;
#X obj 879 725 +~;
#X obj 938 683 - 1;
#X obj 938 704 abs;
#X obj 938 725 *~;
#X obj 109 111 cnv 15 500 280 empty freaks gRλ!N⍹r∀!†Ӊ 20 14
2 24 -12165 -4032 0;
#X obj 102 144 cnv 15 256 256 empty corn empty 20 12 0 14 -176791 -66577
0;
#X obj 519 102 cnv 15 100 60 empty empty empty 20 12 0 14 -16662 -66577
0;
#X obj 366 170 hsl 250 15 0 100 0 0 grainfeeds empty grainfeeds 0 8
2 10 -262144 -83269 -83269 0 1;
#X obj 366 147 hsl 250 15 0 5000 0 0 gdelay_time empty graintime 0
8 2 10 -262144 -16662 -16662 9800 1;
#X obj 366 124 hsl 250 15 0 1 0 0 gdelay_span empty grainspan 0 8 2
10 -262144 -260097 -260097 24900 1;
#X obj 366 308 hsl 250 15 0 127 0 0 ghost_cut empty wraithcut 0 8 2
10 -262144 -128992 -99865 24900 1;
#X obj 366 193 hsl 250 15 40 1 0 0 wraithfreq empty wraithfreq 0 8
2 10 -262144 -86853 -86277 24600 1;
#X obj 366 216 hsl 250 15 0 1 0 0 wraithphase empty wraithphase 0 8
2 10 -262144 -4160 -4160 14100 1;
#X obj 366 239 hsl 250 15 0 1 0 0 wraithwidth empty wraithwidth 0 8
2 10 -262144 -258113 -258113 5100 1;
#X obj 366 262 hsl 250 15 0 1 0 0 wraithoffset empty wraithoffset 0
8 2 10 -262144 -184257 -184257 0 1;
#X obj 366 285 hsl 250 15 0 1 0 0 wraithrandoms empty randomness 0
8 2 10 -262144 -159808 -159808 900 1;
#X obj 366 331 hsl 250 15 0 1 0 0 mix empty mix 0 8 2 10 -262144 -203904
-203904 24900 1;
#X connect 0 0 3 0;
#X connect 1 0 0 1;
#X connect 2 0 0 0;
#X connect 4 0 1 0;
#X connect 5 0 6 0;
#X connect 6 0 7 0;
#X connect 7 0 8 0;
#X connect 8 0 9 0;
#X connect 9 0 16 0;
#X connect 10 0 9 1;
#X connect 10 0 8 1;
#X connect 10 0 7 1;
#X connect 10 0 6 1;
#X connect 11 0 2 0;
#X connect 11 0 5 0;
#X connect 12 0 3 0;
#X connect 12 0 5 0;
#X connect 12 0 45 1;
#X connect 14 0 10 0;
#X connect 16 0 41 1;
#X connect 17 0 11 0;
#X connect 19 0 27 0;
#X connect 20 0 26 0;
#X connect 21 0 20 1;
#X connect 22 0 20 0;
#X connect 22 0 19 0;
#X connect 23 0 21 0;
#X connect 24 0 22 0;
#X connect 25 0 24 0;
#X connect 27 0 28 0;
#X connect 28 0 29 0;
#X connect 29 0 30 0;
#X connect 30 0 34 0;
#X connect 31 0 30 1;
#X connect 31 0 29 1;
#X connect 31 0 28 1;
#X connect 31 0 27 1;
#X connect 33 0 31 0;
#X connect 34 0 47 1;
#X connect 35 0 26 0;
#X connect 35 0 19 0;
#X connect 35 0 51 1;
#X connect 40 0 41 0;
#X connect 40 0 43 0;
#X connect 41 0 42 0;
#X connect 42 0 13 0;
#X connect 42 0 37 0;
#X connect 43 0 44 0;
#X connect 44 0 45 0;
#X connect 45 0 42 1;
#X connect 46 0 47 0;
#X connect 46 0 49 0;
#X connect 47 0 48 0;
#X connect 48 0 32 0;
#X connect 48 0 36 0;
#X connect 49 0 50 0;
#X connect 50 0 51 0;
#X connect 51 0 48 1;
#X coords 0 -1 1 1 520 300 2 100 100;
