#N struct templateks float x float y float c float bas;
#N canvas 0 23 1400 851 10;
#N canvas 744 51 675 651 random3dpoints 0;
#X obj 199 140 t b b b;
#X obj 199 189 / 10000;
#X obj 278 189 / 10000;
#X obj 356 189 / 10000;
#X obj 136 135 bng 15 250 50 0 empty empty empty 17 7 0 10 -262144
-1 -1;
#X obj 199 279 expr if(sqrt($f1*$f1 + $f2*$f2 +$f3*$f3)<=1 \, 1 \,
0);
#X obj 187 301 sel 0 1;
#X obj 199 255 t f f;
#X obj 278 255 t f f;
#X obj 356 255 t f f;
#X obj 206 350 f;
#X obj 231 350 f;
#X obj 256 350 f;
#X obj 206 326 t b b b b;
#X obj 323 325 f;
#X obj 323 346 + 1;
#X obj 323 367 - 1;
#X obj 323 388 sel 100;
#X msg 323 409 0;
#X obj 83 453 tabwrite pointsx;
#X obj 199 119 until;
#X obj 199 168 random 20000;
#X obj 278 168 random 20000;
#X obj 356 168 random 20000;
#X obj 199 210 - 1;
#X obj 278 210 - 1;
#X obj 356 210 - 1;
#X msg 199 99 100;
#X obj 129 432 tabwrite pointsy;
#X obj 173 411 tabwrite pointsz;
#N canvas 0 22 450 278 (subpatch) 0;
#X array pointsx 100 float 3;
#A 0 0.4245 -0.2276 0.8642 0.4697 -0.219 -0.2819 -0.0782 0.5405 -0.3528
-0.4004 -0.1123 -0.5417 -0.029 0.2795 0.6029 0.0788 0.6875 0.6626 -0.1536
0.5068 -0.124 0.6436 0.1325 -0.2653 0.0281 0.8391 0.3997 0.0161 0.8884
-0.9308 -0.039 -0.3859 0.2836 -0.1554 0.3539 0.5722 0.4301 0.2713 -0.46
-0.2855 -0.012 -0.5326 0.6439 -0.5542 -0.0744 0.7353 0.8425 0.069 0.9379
0.1878 0.4935 0.2772 0.2001 0.0202 0.276 -0.2318 0.3757 -0.5641 0.4464
0.194 -0.5477 -0.1251 0.2994 -0.7646 0.8109 0.3063 -0.00410002 0.7104
0.335 0.6131 -0.0345 0.3738 -0.9057 0.3379 0.138 -0.5255 -0.4793 -0.193
-0.5716 -0.1917 0.3441 -0.6299 -0.3728 0.1382 0.7709 -0.1956 0.0936
-0.3547 0.2626 -0.0472 0.178 0.5638 -0.9249 0.1403 0.2951 -0.1011 0.3563
0.465 0.7473 -0.506;
#X coords 0 1 100 -1 200 140 1;
#X restore 422 327 graph;
#N canvas 0 22 450 278 (subpatch) 0;
#X array pointsy 100 float 3;
#A 0 -0.3602 -0.5906 -0.2331 -0.2466 0.6893 -0.2587 0.8087 0.4484 0.2187
-0.078 0.6131 0.758 -0.0115 -0.6735 -0.3833 0.2214 -0.0772 -0.3906
-0.5787 -0.4016 -0.00749999 -0.241 0.1505 0.8133 -0.4668 -0.1803 0.2732
-0.3605 -0.1112 -0.0877 0.3964 0.5719 -0.2097 0.7342 0.7528 0.5936
-0.431 0.2606 0.6782 0.2899 -0.8073 0.319 -0.0394 -0.0518 0.5562 -0.3713
-0.0883 0.8232 0.192 0.1701 -0.1218 -0.3277 -0.6438 0.0997 -0.4877
0.6033 -0.2355 -0.2301 -0.4226 0.2408 -0.4208 0.7841 -0.1664 -0.0629
0.4013 0.5635 -0.6065 0.1586 -0.8282 -0.0775 -0.2633 0.4008 0.00709999
-0.8909 0.0261 -0.061 0.8539 -0.2005 0.4909 -0.0681 0.3078 0.379 -0.3152
0.4931 0.4535 0.296 0.0728 -0.793 0.077 -0.1015 -0.7287 0.00250006
-0.2716 -0.0185 -0.1275 0.0889 -0.2013 -0.3287 -0.2551 -0.2561;
#X coords 0 1 100 -1 200 140 1 0 0;
#X restore 422 481 graph;
#N canvas 0 22 450 278 (subpatch) 0;
#X array pointsz 100 float 3;
#A 0 0.8083 0.29 0.1058 0.3013 -0.594 -0.819 -0.2479 -0.0209 0.3155
-0.9119 0.6777 -0.1637 -0.8599 0.4837 -0.6729 -0.807 0.136 0.3465 -0.629
-0.3602 0.3765 -0.2842 -0.4596 -0.00330001 0.1636 0.4755 0.1527 -0.5622
0.4296 -0.3032 -0.2847 0.05 -0.6309 -0.4108 0.1174 0.5532 -0.411 0.5187
-0.4694 0.2527 0.4563 0.3151 0.1003 -0.7826 0.5825 0.0932 -0.3821 0.2914
0.0716 0.6221 0.7497 -0.1324 0.6123 -0.1839 0.5905 0.5536 0.7359 -0.0572
0.118 -0.0466 0.0470001 0.2455 -0.1185 -0.3251 -0.1862 -0.368 0.1013
-0.5534 -0.0732 0.7009 0.1619 -0.5635 -0.2651 -0.3 -0.3687 -0.7133
-0.0206 -0.3044 -0.4945 0.9376 -0.7675 0.505 0.58 -0.3745 0.3394 -0.5659
0.5523 -0.199 0.1327 0.6373 -0.4693 -0.2644 -0.1062 -0.8277 0.3669
0.8548 -0.6865 0.4433 -0.2074 -0.1225;
#X coords 0 1 100 -1 200 140 1 0 0;
#X restore 422 633 graph;
#X connect 0 0 21 0;
#X connect 0 1 22 0;
#X connect 0 2 23 0;
#X connect 1 0 24 0;
#X connect 2 0 25 0;
#X connect 3 0 26 0;
#X connect 4 0 27 0;
#X connect 5 0 6 0;
#X connect 6 0 0 0;
#X connect 6 1 13 0;
#X connect 7 0 5 0;
#X connect 7 1 10 1;
#X connect 8 0 5 1;
#X connect 8 1 11 1;
#X connect 9 0 5 2;
#X connect 9 1 12 1;
#X connect 10 0 19 0;
#X connect 11 0 28 0;
#X connect 12 0 29 0;
#X connect 13 0 10 0;
#X connect 13 1 11 0;
#X connect 13 2 12 0;
#X connect 13 3 14 0;
#X connect 14 0 15 0;
#X connect 15 0 14 1;
#X connect 15 0 16 0;
#X connect 16 0 17 0;
#X connect 16 0 19 1;
#X connect 16 0 28 1;
#X connect 16 0 29 1;
#X connect 17 0 18 0;
#X connect 18 0 14 1;
#X connect 20 0 0 0;
#X connect 21 0 1 0;
#X connect 22 0 2 0;
#X connect 23 0 3 0;
#X connect 24 0 7 0;
#X connect 25 0 8 0;
#X connect 26 0 9 0;
#X connect 27 0 20 0;
#X coords 0 -1 1 1 85 60 1 100 100;
#X restore 50 49 pd random3dpoints;
#N canvas 0 22 450 278 (subpatch) 0;
#X array flatpointsx 100 float 3;
#A 0 0.841707 0.031951 0.498446 0.456805 -0.502705 -0.875825 -0.119781
0.333395 0.117911 -0.986352 0.60982 -0.296634 -0.740031 0.443732 -0.315512
-0.602632 0.457408 0.571532 -0.700811 -0.105115 0.251358 0.0551578
-0.294022 -0.0100385 0.0775797 0.804834 0.378646 -0.522073 0.802747
-0.750116 -0.196304 -0.0660937 -0.417507 -0.308584 0.401867 0.855803
-0.192179 0.618086 -0.524252 0.111249 0.248653 0.0406548 0.410883 -0.952919
0.540258 0.399156 0.100011 0.412188 0.575657 0.647438 0.866154 -0.0204022
0.515592 -0.128305 0.561414 0.442116 0.775504 -0.376422 0.262496 0.0995312
-0.31076 0.267015 0.0285199 -0.678669 0.326615 -0.0612023 -0.0137702
-0.0729131 -0.0206589 0.894004 0.0762875 -0.216714 -0.689961 -0.219919
-0.234592 -0.88127 -0.128718 -0.387785 -0.632953 0.678591 -0.418487
0.159654 0.244774 -0.164797 0.756323 -0.529778 0.524507 -0.477331 0.259633
0.495386 -0.419054 0.0694456 -0.610749 -0.62656 0.440747 0.680853 -0.42535
0.560693 0.171098 -0.405462;
#X coords 0 1 100 -1 200 140 1 0 0;
#X restore 1077 31 graph;
#N canvas 0 22 450 278 (subpatch) 0;
#X array flatpointsy 100 float 3;
#A 0 0.01234 0.285162 -0.708554 -0.272864 -0.0477036 -0.199513 0.0190267
-0.430082 0.483317 -0.127824 0.49939 0.45368 -0.412946 -0.0585756 -0.894777
-0.455912 -0.526922 -0.428928 -0.243715 -0.655483 0.296619 -0.718514
-0.332306 0.303848 0.0140174 -0.49424 -0.238285 -0.334029 -0.553089
0.634397 -0.0729687 0.410881 -0.583372 -0.00478959 -0.170764 -0.151688
-0.618454 0.0562787 0.220809 0.400678 0.164153 0.646703 -0.504082 0.0720236
0.413116 -0.617931 -0.923776 0.168275 -0.748027 0.171542 -0.0535048
-0.336128 0.0775656 -0.101066 0.0165707 0.537724 0.0293732 0.431671
-0.362967 -0.166524 0.452159 0.307358 -0.332522 0.48339 -0.750042 -0.394756
-0.00352489 -0.873874 -0.403802 -0.1764 0.0863632 -0.567502 0.641397
-0.5275 -0.302848 0.0817591 0.482174 -0.00868801 0.285542 0.633664
-0.654636 0.832215 0.583279 -0.26094 -0.443863 -0.0913851 0.207356
0.126134 -0.149991 0.354248 -0.46095 -0.616669 0.711653 -0.5422 -0.0786011
0.529196 -0.673031 -0.204647 -0.769647 0.346268;
#X coords 0 1 100 -1 200 140 1 0 0;
#X restore 1077 185 graph;
#X obj 229 58 tgl 15 0 empty empty empty 17 7 0 10 -262144 -1 -1 1
1;
#N canvas 0 23 1191 847 rotator 0;
#X obj 418 224 t f f f;
#X obj 418 519 tabread pointsx;
#X obj 776 245 tabread pointsy;
#X obj 437 245 tabread pointsz;
#X obj 437 267 expr acos($f1/(sqrt( pow($f1 \, 2)+pow($f2 \, 2))))*if($f2<0
\, -1 \, 1);
#X obj 437 301 expr if($f1<0 \, abs(-$f1-3.14159)+3.14159 \, $f1);
#X text 569 321 zy-theta in radians;
#X obj 437 323 / 6.28318;
#X obj 437 365 +;
#X obj 447 344 t b f;
#X obj 437 386 wrap;
#X obj 437 407 * 6.28318;
#X obj 437 452 sin;
#X obj 437 476 *;
#X obj 486 438 expr sqrt(pow($f1 \, 2)+pow($f2 \, 2));
#X obj 486 459 t b f;
#X obj 437 542 expr acos($f1/(sqrt( pow($f1 \, 2)+pow($f2 \, 2))))*if($f2<0
\, -1 \, 1);
#X obj 437 574 expr if($f1<0 \, abs(-$f1-3.14159)+3.14159 \, $f1);
#X obj 437 595 / 6.28318;
#X obj 437 635 +;
#X obj 447 614 t b f;
#X obj 437 657 wrap;
#X obj 437 679 * 6.28318;
#X obj 437 703 cos;
#X obj 464 703 sin;
#X obj 437 768 *;
#X obj 464 768 *;
#X obj 418 723 expr sqrt(pow($f1 \, 2)+pow($f2 \, 2));
#X obj 418 745 t b f;
#X obj 437 497 t b f;
#X text 569 593 xy-theta in radians;
#X obj 761 751 tabwrite flatpointsx;
#X obj 769 786 tabwrite flatpointsy;
#X obj 842 397 snapshot~;
#X obj 903 248 inlet~;
#X obj 957 248 inlet~;
#X obj 480 83 t b b b;
#X obj 895 602 snapshot~;
#X msg 480 107 100;
#X obj 480 128 until;
#X obj 480 152 f;
#X obj 480 174 + 1;
#X obj 480 195 - 1;
#X obj 514 174 sel 100;
#X msg 514 195 0;
#X obj 480 216 t f f f;
#X obj 481 21 inlet;
#X obj 481 42 metro 40;
#X connect 0 0 1 0;
#X connect 0 1 3 0;
#X connect 0 2 2 0;
#X connect 1 0 16 0;
#X connect 1 0 27 0;
#X connect 2 0 4 1;
#X connect 2 0 14 1;
#X connect 3 0 4 0;
#X connect 3 0 14 0;
#X connect 4 0 5 0;
#X connect 5 0 7 0;
#X connect 7 0 8 0;
#X connect 8 0 10 0;
#X connect 9 0 8 0;
#X connect 9 1 8 1;
#X connect 10 0 11 0;
#X connect 11 0 12 0;
#X connect 12 0 13 0;
#X connect 13 0 29 0;
#X connect 14 0 15 0;
#X connect 15 0 13 0;
#X connect 15 1 13 1;
#X connect 16 0 17 0;
#X connect 17 0 18 0;
#X connect 18 0 19 0;
#X connect 19 0 21 0;
#X connect 20 0 19 0;
#X connect 20 1 19 1;
#X connect 21 0 22 0;
#X connect 22 0 23 0;
#X connect 22 0 24 0;
#X connect 23 0 25 0;
#X connect 24 0 26 0;
#X connect 25 0 31 0;
#X connect 26 0 32 0;
#X connect 27 0 28 0;
#X connect 28 0 25 0;
#X connect 28 0 26 0;
#X connect 28 1 25 1;
#X connect 28 1 26 1;
#X connect 29 0 16 0;
#X connect 29 0 27 0;
#X connect 29 1 16 1;
#X connect 29 1 27 1;
#X connect 33 0 9 0;
#X connect 34 0 33 0;
#X connect 35 0 37 0;
#X connect 36 0 38 0;
#X connect 36 1 37 0;
#X connect 36 2 33 0;
#X connect 37 0 20 0;
#X connect 38 0 39 0;
#X connect 39 0 40 0;
#X connect 40 0 41 0;
#X connect 41 0 40 1;
#X connect 41 0 42 0;
#X connect 42 0 43 0;
#X connect 42 0 45 0;
#X connect 43 0 44 0;
#X connect 44 0 40 1;
#X connect 45 0 0 0;
#X connect 45 1 31 1;
#X connect 45 2 32 1;
#X connect 46 0 47 0;
#X connect 47 0 36 0;
#X restore 300 146 pd rotator;
#N canvas 0 22 450 278 (subpatch) 0;
#X array kpointsx 3 float 3;
#A 0 0.409593 0.0956756 -0.527184;
#X coords 0 1 3 -1 200 140 1;
#X restore 787 385 graph;
#N canvas 0 22 450 278 (subpatch) 0;
#X array kpointsy 3 float 3;
#A 0 0.196955 -0.535121 0.115309;
#X coords 0 1 3 -1 200 140 1 0 0;
#X restore 788 227 graph;
#N canvas 36 23 1365 847 textks 0;
#N canvas 0 23 816 734 kpoints 0;
#X obj 199 140 t b b b;
#X obj 199 189 / 10000;
#X obj 278 189 / 10000;
#X obj 136 135 bng 15 250 50 0 empty empty empty 17 7 0 10 -262144
-1 -1;
#X obj 187 301 sel 0 1;
#X obj 199 255 t f f;
#X obj 278 255 t f f;
#X obj 206 350 f;
#X obj 231 350 f;
#X obj 359 310 f;
#X obj 359 331 + 1;
#X obj 359 352 - 1;
#X msg 359 394 0;
#X obj 199 119 until;
#X obj 199 168 random 20000;
#X obj 278 168 random 20000;
#X obj 199 210 - 1;
#X obj 278 210 - 1;
#X obj 199 279 expr if(sqrt($f1*$f1 + $f2*$f2)<=1 \, 1 \, 0);
#X obj 206 326 t b b b;
#X obj 359 373 sel 10;
#X msg 199 99 10;
#X obj 142 466 tabwrite kpointsy;
#X obj 96 487 tabwrite kpointsx;
#X obj 208 45 loadbang;
#X connect 0 0 14 0;
#X connect 0 1 15 0;
#X connect 1 0 16 0;
#X connect 2 0 17 0;
#X connect 3 0 21 0;
#X connect 4 0 0 0;
#X connect 4 1 19 0;
#X connect 5 0 18 0;
#X connect 5 1 7 1;
#X connect 6 0 18 1;
#X connect 6 1 8 1;
#X connect 7 0 23 0;
#X connect 8 0 22 0;
#X connect 9 0 10 0;
#X connect 10 0 9 1;
#X connect 10 0 11 0;
#X connect 11 0 20 0;
#X connect 11 0 22 1;
#X connect 11 0 23 1;
#X connect 12 0 9 1;
#X connect 13 0 0 0;
#X connect 14 0 1 0;
#X connect 15 0 2 0;
#X connect 16 0 5 0;
#X connect 17 0 6 0;
#X connect 18 0 4 0;
#X connect 19 0 7 0;
#X connect 19 1 8 0;
#X connect 19 2 9 0;
#X connect 20 0 12 0;
#X connect 21 0 13 0;
#X connect 24 0 21 0;
#X coords 0 -1 1 1 85 60 1 100 100;
#X restore 324 88 pd kpoints;
#X obj 617 83 tabread flatpointsx;
#X obj 654 129 tabread kpointsx;
#X obj 730 192 tabread kpointsy;
#X obj 692 150 tabread flatpointsy;
#X obj 617 148 -;
#X obj 692 213 -;
#X obj 692 234 pow 2;
#X obj 617 170 pow 2;
#X obj 617 254 +;
#X obj 654 109 0;
#X obj 730 173 0;
#X obj 617 275 pow 0.5;
#X obj 617 57 t f b f b f b f b f b f b, f 70;
#X obj 648 377 sel 0 1 2;
#X obj 385 560 f;
#X obj 837 100 tabread flatpointsx;
#X obj 875 146 tabread kpointsx;
#X obj 951 209 tabread kpointsy;
#X obj 913 167 tabread flatpointsy;
#X obj 837 165 -;
#X obj 913 230 -;
#X obj 913 251 pow 2;
#X obj 837 187 pow 2;
#X obj 837 271 +;
#X obj 837 292 pow 0.5;
#X obj 875 126 1;
#X obj 951 190 1;
#X obj 1046 95 tabread flatpointsx;
#X obj 1084 141 tabread kpointsx;
#X obj 1160 204 tabread kpointsy;
#X obj 1122 162 tabread flatpointsy;
#X obj 1046 160 -;
#X obj 1122 225 -;
#X obj 1122 246 pow 2;
#X obj 1046 182 pow 2;
#X obj 1046 266 +;
#X obj 1046 287 pow 0.5;
#X obj 1084 121 2;
#X obj 1160 185 2;
#X obj 412 599 f;
#X obj 412 620 + 1;
#X obj 385 539 t b b;
#X obj 648 337 expr if($f1<$f2&&$f1<$f3 \, 0 \, if($f2<$f1&&$f2<$f3
\, 1 \, if($f3<$f1&&$f3<$f2 \, 2 \, 3)));
#X obj 617 25 t f f;
#X msg 379 433 0;
#X obj 116 527 tabread flatpointsx;
#X obj 116 549 +;
#X obj 116 570 f;
#X obj 116 591 /;
#X msg 461 83 100;
#X obj 461 104 until;
#X obj 461 125 f;
#X obj 461 146 + 1;
#X obj 461 167 - 1;
#X obj 239 548 +;
#X obj 239 568 f;
#X obj 239 590 /;
#X obj 239 526 tabread flatpointsy;
#X msg 513 73 0;
#X obj 116 704 tabwrite kpointsx;
#X obj 241 705 tabwrite kpointsy;
#X msg 161 631 0;
#X floatatom 550 29 5 0 0 0 - - -;
#X obj 113 675 f;
#X msg 264 631 0;
#X obj 498 169 sel 100;
#X obj 235 665 f;
#X msg 77 486 0;
#X obj 477 39 t b b b b b;
#X obj 323 584 loadbang;
#X obj 293 41 tgl 15 0 empty empty empty 17 7 0 10 -262144 -1 -1 1
1;
#X obj 805 593 f;
#X obj 832 632 f;
#X obj 832 653 + 1;
#X obj 805 572 t b b;
#X obj 536 560 tabread flatpointsx;
#X obj 536 582 +;
#X obj 536 603 f;
#X obj 536 624 /;
#X obj 659 581 +;
#X obj 659 601 f;
#X obj 659 623 /;
#X obj 659 559 tabread flatpointsy;
#X obj 536 737 tabwrite kpointsx;
#X obj 661 738 tabwrite kpointsy;
#X obj 533 708 f;
#X obj 655 698 f;
#X msg 643 470 0;
#X obj 743 617 loadbang;
#X msg 581 664 1;
#X msg 684 664 1;
#X obj 1231 549 f;
#X obj 1258 588 f;
#X obj 1258 609 + 1;
#X obj 1231 528 t b b;
#X obj 962 516 tabread flatpointsx;
#X obj 962 538 +;
#X obj 962 559 f;
#X obj 962 580 /;
#X obj 1085 537 +;
#X obj 1085 557 f;
#X obj 1085 579 /;
#X obj 1085 515 tabread flatpointsy;
#X obj 962 693 tabwrite kpointsx;
#X obj 1087 694 tabwrite kpointsy;
#X obj 959 664 f;
#X obj 1081 654 f;
#X msg 1069 426 0;
#X obj 1169 573 loadbang;
#X msg 1110 620 2;
#X msg 1007 620 2;
#X obj 233 47 loadbang;
#X obj 293 61 metro 30;
#X connect 1 0 5 0;
#X connect 2 0 5 1;
#X connect 3 0 6 1;
#X connect 4 0 6 0;
#X connect 5 0 8 0;
#X connect 6 0 7 0;
#X connect 7 0 9 1;
#X connect 8 0 9 0;
#X connect 9 0 12 0;
#X connect 10 0 2 0;
#X connect 11 0 3 0;
#X connect 12 0 43 0;
#X connect 13 0 1 0;
#X connect 13 1 10 0;
#X connect 13 2 4 0;
#X connect 13 3 11 0;
#X connect 13 4 16 0;
#X connect 13 5 26 0;
#X connect 13 6 19 0;
#X connect 13 7 27 0;
#X connect 13 8 28 0;
#X connect 13 9 38 0;
#X connect 13 10 31 0;
#X connect 13 11 39 0;
#X connect 14 0 42 0;
#X connect 14 1 75 0;
#X connect 14 2 95 0;
#X connect 15 0 46 0;
#X connect 15 0 58 0;
#X connect 16 0 20 0;
#X connect 17 0 20 1;
#X connect 18 0 21 1;
#X connect 19 0 21 0;
#X connect 20 0 23 0;
#X connect 21 0 22 0;
#X connect 22 0 24 1;
#X connect 23 0 24 0;
#X connect 24 0 25 0;
#X connect 25 0 43 1;
#X connect 26 0 17 0;
#X connect 27 0 18 0;
#X connect 28 0 32 0;
#X connect 29 0 32 1;
#X connect 30 0 33 1;
#X connect 31 0 33 0;
#X connect 32 0 35 0;
#X connect 33 0 34 0;
#X connect 34 0 36 1;
#X connect 35 0 36 0;
#X connect 36 0 37 0;
#X connect 37 0 43 2;
#X connect 38 0 29 0;
#X connect 39 0 30 0;
#X connect 40 0 41 0;
#X connect 41 0 40 1;
#X connect 41 0 57 1;
#X connect 41 0 49 1;
#X connect 42 0 15 0;
#X connect 42 1 40 0;
#X connect 43 0 14 0;
#X connect 44 0 13 0;
#X connect 44 1 15 1;
#X connect 44 1 72 1;
#X connect 44 1 92 1;
#X connect 45 0 40 1;
#X connect 45 0 73 1;
#X connect 45 0 93 1;
#X connect 46 0 47 0;
#X connect 47 0 48 0;
#X connect 48 0 47 1;
#X connect 48 0 49 0;
#X connect 49 0 64 1;
#X connect 50 0 51 0;
#X connect 51 0 52 0;
#X connect 52 0 53 0;
#X connect 53 0 54 0;
#X connect 53 0 52 1;
#X connect 53 0 66 0;
#X connect 54 0 44 0;
#X connect 55 0 56 0;
#X connect 56 0 55 1;
#X connect 56 0 57 0;
#X connect 57 0 67 1;
#X connect 58 0 55 0;
#X connect 59 0 52 1;
#X connect 62 0 60 1;
#X connect 63 0 44 0;
#X connect 64 0 60 0;
#X connect 65 0 61 1;
#X connect 66 0 59 0;
#X connect 66 0 64 0;
#X connect 66 0 67 0;
#X connect 66 0 86 0;
#X connect 66 0 87 0;
#X connect 66 0 106 0;
#X connect 66 0 107 0;
#X connect 67 0 61 0;
#X connect 68 0 47 0;
#X connect 68 0 55 0;
#X connect 68 0 48 1;
#X connect 68 0 56 1;
#X connect 68 0 55 1;
#X connect 68 0 47 1;
#X connect 69 0 50 0;
#X connect 69 1 59 0;
#X connect 69 2 45 0;
#X connect 69 3 68 0;
#X connect 69 3 88 0;
#X connect 69 3 108 0;
#X connect 69 4 68 0;
#X connect 69 4 88 0;
#X connect 69 4 108 0;
#X connect 70 0 65 0;
#X connect 70 0 62 0;
#X connect 71 0 113 0;
#X connect 72 0 76 0;
#X connect 72 0 83 0;
#X connect 73 0 74 0;
#X connect 74 0 73 1;
#X connect 74 0 82 1;
#X connect 74 0 79 1;
#X connect 75 0 72 0;
#X connect 75 1 73 0;
#X connect 76 0 77 0;
#X connect 77 0 78 0;
#X connect 78 0 77 1;
#X connect 78 0 79 0;
#X connect 79 0 86 1;
#X connect 80 0 81 0;
#X connect 81 0 80 1;
#X connect 81 0 82 0;
#X connect 82 0 87 1;
#X connect 83 0 80 0;
#X connect 86 0 84 0;
#X connect 87 0 85 0;
#X connect 88 0 77 0;
#X connect 88 0 80 0;
#X connect 88 0 78 1;
#X connect 88 0 81 1;
#X connect 88 0 80 1;
#X connect 88 0 77 1;
#X connect 89 0 91 0;
#X connect 89 0 90 0;
#X connect 90 0 84 1;
#X connect 91 0 85 1;
#X connect 92 0 96 0;
#X connect 92 0 103 0;
#X connect 93 0 94 0;
#X connect 94 0 93 1;
#X connect 94 0 102 1;
#X connect 94 0 99 1;
#X connect 95 0 92 0;
#X connect 95 1 93 0;
#X connect 96 0 97 0;
#X connect 97 0 98 0;
#X connect 98 0 97 1;
#X connect 98 0 99 0;
#X connect 99 0 106 1;
#X connect 100 0 101 0;
#X connect 101 0 100 1;
#X connect 101 0 102 0;
#X connect 102 0 107 1;
#X connect 103 0 100 0;
#X connect 106 0 104 0;
#X connect 107 0 105 0;
#X connect 108 0 97 0;
#X connect 108 0 100 0;
#X connect 108 0 98 1;
#X connect 108 0 101 1;
#X connect 108 0 100 1;
#X connect 108 0 97 1;
#X connect 109 0 110 0;
#X connect 109 0 111 0;
#X connect 110 0 105 1;
#X connect 111 0 104 1;
#X connect 112 0 71 0;
#X connect 113 0 69 0;
#X restore 300 167 pd textks;
#N canvas 0 23 1125 725 guik 0;
#X obj 648 357 pointer;
#X obj 629 208 t b b b;
#X msg 581 256 0;
#X obj 528 282 f;
#X obj 561 282 + 1;
#X obj 530 258 until;
#X msg 818 282 \; pd-dataks clear;
#X msg 672 284 traverse pd-dataks;
#X obj 451 479 tabread flatpointsx;
#X obj 577 445 tabread flatpointsy;
#X obj 653 107 tgl 15 0 empty empty empty 17 7 0 10 -262144 -1 -1 1
1;
#X obj 451 500 * 300;
#X obj 577 466 * 300;
#N canvas 62 38 836 790 colorsk 0;
#X obj 87 417 tabread flatpointsx;
#X obj 209 417 tabread kpointsx;
#X obj 126 356 t f b b b;
#X obj 311 417 tabread kpointsx;
#X obj 414 418 tabread kpointsx;
#X msg 215 398 0;
#X msg 313 396 1;
#X msg 418 399 2;
#X obj 155 517 pow 2;
#X obj 194 519 pow 2;
#X obj 233 519 pow 2;
#X obj 367 452 t f b b b;
#X msg 429 488 0;
#X msg 527 486 1;
#X msg 632 489 2;
#X obj 369 607 pow 2;
#X obj 408 609 pow 2;
#X obj 447 609 pow 2;
#X obj 301 507 tabread flatpointsy;
#X obj 423 507 tabread kpointsy;
#X obj 525 507 tabread kpointsy;
#X obj 628 508 tabread kpointsy;
#X obj 143 315 t f f;
#X obj 155 538 +;
#X obj 194 540 +;
#X obj 233 540 +;
#X obj 142 292 inlet;
#X obj 184 749 outlet;
#X obj 602 672 expr if($f1< $f2 && $f1< $f3 \, 0 \, if($f2 < $f1 &&
$f2 < $f3 \, 1 \, 2));
#X obj 233 496 -;
#X obj 194 496 -;
#X obj 155 496 -;
#X obj 369 586 -;
#X obj 408 586 -;
#X obj 447 586 -;
#X connect 0 0 29 0;
#X connect 0 0 30 0;
#X connect 0 0 31 0;
#X connect 1 0 31 1;
#X connect 2 0 0 0;
#X connect 2 1 5 0;
#X connect 2 2 6 0;
#X connect 2 3 7 0;
#X connect 3 0 30 1;
#X connect 4 0 29 1;
#X connect 5 0 1 0;
#X connect 6 0 3 0;
#X connect 8 0 23 0;
#X connect 9 0 24 0;
#X connect 10 0 25 0;
#X connect 11 0 18 0;
#X connect 11 1 12 0;
#X connect 11 2 13 0;
#X connect 11 3 14 0;
#X connect 12 0 19 0;
#X connect 13 0 20 0;
#X connect 15 0 23 1;
#X connect 16 0 24 1;
#X connect 17 0 25 1;
#X connect 18 0 32 0;
#X connect 18 0 33 0;
#X connect 18 0 34 0;
#X connect 19 0 32 1;
#X connect 20 0 33 1;
#X connect 21 0 34 1;
#X connect 22 0 2 0;
#X connect 22 1 11 0;
#X connect 23 0 28 0;
#X connect 24 0 28 1;
#X connect 25 0 28 2;
#X connect 26 0 22 0;
#X connect 28 0 27 0;
#X connect 29 0 10 0;
#X connect 30 0 9 0;
#X connect 31 0 8 0;
#X connect 32 0 15 0;
#X connect 33 0 16 0;
#X connect 34 0 17 0;
#X restore 721 489 pd colorsk;
#X obj 577 487 + 350;
#X obj 451 521 + 350;
#X obj 652 151 metro 50;
#X obj 722 531 sel 0 1 2;
#X obj 727 555 f;
#X obj 763 563 f;
#X obj 841 567 f;
#X floatatom 826 503 5 0 0 0 - - -;
#X floatatom 865 506 5 0 0 0 - - -;
#X floatatom 902 510 5 0 0 0 - - -;
#X obj 660 83 loadbang;
#X obj 826 445 random 1000;
#X obj 851 473 random 1000;
#X obj 956 459 random 1000;
#X obj 917 425 b;
#X obj 497 642 append templateks x y c bas;
#X obj 592 305 t f b f f;
#X obj 542 305 sel 101;
#X obj 198 62 filledcurve c c bas bas bas bas bas bas bas;
#X obj 134 23 struct templateks float x float y float c float bas;
#X obj 1038 382 bng 15 250 50 0 empty empty empty 17 7 0 10 -262144
-1 -1;
#X obj 762 631 loadbang;
#X msg 762 652 6;
#X connect 0 0 29 4;
#X connect 1 0 5 0;
#X connect 1 1 7 0;
#X connect 1 1 2 0;
#X connect 1 2 6 0;
#X connect 2 0 3 1;
#X connect 3 0 4 0;
#X connect 3 0 31 0;
#X connect 4 0 3 1;
#X connect 5 0 3 0;
#X connect 7 0 0 0;
#X connect 8 0 11 0;
#X connect 9 0 12 0;
#X connect 10 0 16 0;
#X connect 11 0 15 0;
#X connect 12 0 14 0;
#X connect 13 0 17 0;
#X connect 14 0 29 1;
#X connect 15 0 29 0;
#X connect 16 0 1 0;
#X connect 17 0 18 0;
#X connect 17 1 19 0;
#X connect 17 2 20 0;
#X connect 18 0 29 2;
#X connect 19 0 29 2;
#X connect 20 0 29 2;
#X connect 21 0 18 1;
#X connect 22 0 19 1;
#X connect 23 0 20 1;
#X connect 24 0 10 0;
#X connect 24 0 28 0;
#X connect 25 0 21 0;
#X connect 26 0 22 0;
#X connect 27 0 23 0;
#X connect 28 0 27 0;
#X connect 28 0 26 0;
#X connect 28 0 25 0;
#X connect 30 0 9 0;
#X connect 30 0 8 0;
#X connect 30 1 0 0;
#X connect 30 2 13 0;
#X connect 31 0 5 1;
#X connect 31 1 30 0;
#X connect 34 0 28 0;
#X connect 35 0 36 0;
#X connect 36 0 29 3;
#X restore 299 186 pd guik;
#N canvas 658 23 782 769 dataks 1;
#X scalar templateks 229.358 455.931 783 6 \;;
#X scalar templateks 229.358 455.931 783 6 \;;
#X scalar templateks 394.159 117.073 472 6 \;;
#X scalar templateks 513.748 282.83 355 6 \;;
#X scalar templateks 217.039 151.051 472 6 \;;
#X scalar templateks 557.511 503.346 355 6 \;;
#X scalar templateks 480.205 322.374 355 6 \;;
#X scalar templateks 159.124 192.609 472 6 \;;
#X scalar templateks 170.358 566.956 783 6 \;;
#X scalar templateks 366.663 164.765 472 6 \;;
#X scalar templateks 216.542 212.354 472 6 \;;
#X scalar templateks 499.587 451.671 355 6 \;;
#X scalar templateks 427.104 303.296 783 6 \;;
#X scalar templateks 202.574 388.385 783 6 \;;
#X scalar templateks 508.56 408.157 355 6 \;;
#X scalar templateks 193.284 328.128 783 6 \;;
#X scalar templateks 576.207 212.812 472 6 \;;
#X scalar templateks 302.586 275.206 783 6 \;;
#X scalar templateks 424.721 521.413 355 6 \;;
#X scalar templateks 405.936 599.499 355 6 \;;
#X scalar templateks 222.868 158.591 472 6 \;;
#X scalar templateks 556.403 534.007 355 6 \;;
#X scalar templateks 166.372 442.646 783 6 \;;
#X scalar templateks 232.679 349.712 783 6 \;;
#X scalar templateks 320.89 498.945 783 6 \;;
#X scalar templateks 86.8869 381.362 783 6 \;;
#X scalar templateks 278.107 261.305 783 6 \;;
#X scalar templateks 274.412 190.148 472 6 \;;
#X scalar templateks 148.234 547.698 783 6 \;;
#X scalar templateks 284.38 183.436 472 6 \;;
#X scalar templateks 371.468 374.169 783 6 \;;
#X scalar templateks 615.293 289.624 355 6 \;;
#X scalar templateks 335.199 225.84 472 6 \;;
#X scalar templateks 323.556 89.5268 472 6 \;;
#X scalar templateks 341.508 346.57 783 6 \;;
#X scalar templateks 333.144 234.581 472 6 \;;
#X scalar templateks 445.453 124.377 472 6 \;;
#X scalar templateks 150.054 499.999 783 6 \;;
#X scalar templateks 355.114 249.502 472 6 \;;
#X scalar templateks 437.425 443.104 355 6 \;;
#X scalar templateks 257.164 486.204 783 6 \;;
#X scalar templateks 380.352 300.311 783 6 \;;
#X scalar templateks 422.956 237.442 472 6 \;;
#X scalar templateks 238.785 481.38 783 6 \;;
#X scalar templateks 580.132 351.561 355 6 \;;
#X scalar templateks 489.956 509.938 355 6 \;;
#X scalar templateks 514.291 348.423 355 6 \;;
#X scalar templateks 311.722 321.178 783 6 \;;
#X scalar templateks 499.889 366.422 355 6 \;;
#X scalar templateks 339.32 248.156 472 6 \;;
#X scalar templateks 607.473 326.473 355 6 \;;
#X scalar templateks 545.738 396.836 355 6 \;;
#X scalar templateks 518.347 122.108 472 6 \;;
#X scalar templateks 480.142 400.437 355 6 \;;
#X scalar templateks 373.1 72.1717 472 6 \;;
#X scalar templateks 462.449 160.189 472 6 \;;
#X scalar templateks 518.103 471.633 355 6 \;;
#X scalar templateks 65.4882 379.063 783 6 \;;
#X scalar templateks 469.091 195.551 472 6 \;;
#X scalar templateks 368.73 544.657 355 6 \;;
#X scalar templateks 419.561 393.842 355 6 \;;
#X scalar templateks 387.972 470.286 355 6 \;;
#X scalar templateks 199.754 423.148 783 6 \;;
#X scalar templateks 536.856 362.925 355 6 \;;
#X scalar templateks 285.396 164.569 472 6 \;;
#X scalar templateks 608.867 300.084 355 6 \;;
#X scalar templateks 474.302 298.694 355 6 \;;
#X scalar templateks 263.073 354.07 783 6 \;;
#X scalar templateks 219.917 177.805 472 6 \;;
#X scalar templateks 337.096 475.931 783 6 \;;
#X scalar templateks 293.73 331.359 783 6 \;;
#X scalar templateks 129.539 545.699 783 6 \;;
#X scalar templateks 585.292 177.411 472 6 \;;
#X scalar templateks 189.259 252.707 783 6 \;;
#X scalar templateks 463.473 276.695 472 6 \;;
#X scalar templateks 585.81 194.735 472 6 \;;
#X scalar templateks 369.912 351.658 783 6 \;;
#X scalar templateks 354.861 444.413 783 6 \;;
#X scalar templateks 261.055 253.473 783 6 \;;
#X scalar templateks 359.971 133.382 472 6 \;;
#X scalar templateks 426.992 436.77 355 6 \;;
#X scalar templateks 311.366 152.896 472 6 \;;
#X scalar templateks 134.906 280.306 783 6 \;;
#X scalar templateks 515.051 215.32 472 6 \;;
#X scalar templateks 482.564 188.179 472 6 \;;
#X scalar templateks 168.567 219.241 472 6 \;;
#X scalar templateks 247.066 83.0075 472 6 \;;
#X scalar templateks 477.308 326.109 355 6 \;;
#X scalar templateks 126.141 232.265 783 6 \;;
#X scalar templateks 269.859 491.376 783 6 \;;
#X scalar templateks 539.862 497.142 355 6 \;;
#X scalar templateks 53.9865 319.375 783 6 \;;
#X scalar templateks 389.999 494.689 355 6 \;;
#X scalar templateks 449.942 220.338 472 6 \;;
#X scalar templateks 320.158 359.981 783 6 \;;
#X scalar templateks 85.225 296.27 783 6 \;;
#X scalar templateks 204.485 342.603 783 6 \;;
#X scalar templateks 482.855 263.577 472 6 \;;
#X scalar templateks 492.495 132.812 472 6 \;;
#X scalar templateks 357.196 432.723 783 6 \;;
#X scalar templateks 598.897 345.412 355 6 \;;
#X restore 312 298 pd dataks;
#X obj 300 60 phasor~ 0.11;
#X obj 443 117 phasor~ 0.1;
#X connect 3 0 4 0;
#X connect 10 0 4 1;
#X connect 11 0 4 2;
