#N canvas 0 23 1440 775 10;
#N canvas 0 23 1088 851 markovdatastuff 0;
#X obj 607 494 tabread;
#X obj 607 517 + 1;
#X obj 596 538 tabwrite;
#X msg 384 698 \; \$1-hist const 0;
#X obj 383 573 f;
#X obj 383 594 + 1;
#X obj 383 553 until;
#X msg 383 534 127;
#X msg 596 427 set \$1-hist;
#X obj 596 407 f;
#X obj 596 387 t f b;
#X obj 596 367 t f f;
#X obj 596 468 f;
#X obj 596 448 b;
#X obj 383 615 % 127;
#X obj 386 657 + 1;
#X obj 596 346 change;
#X obj 353 699 b;
#X obj 672 364 sel;
#X obj 672 344 t f f;
#X obj 713 436 f;
#X obj 713 457 + 1;
#X obj 675 436 f;
#X obj 675 457 + 1;
#X obj 675 478 % 2;
#X obj 713 478 % 2;
#X obj 675 499 sel 0;
#X obj 713 499 sel 0;
#X msg 690 409 1;
#X msg 728 409 0;
#X obj 675 539 tabwrite notetimes;
#X obj 690 385 loadbang;
#X obj 417 344 realtime;
#X obj 418 197 int;
#X obj 418 155 fiddle~ 2048 1 20 3;
#X obj 418 254 ==;
#X obj 472 239 t b f;
#X obj 418 95 env~;
#X obj 418 114 > 55;
#X obj 418 135 *~;
#X obj 472 176 f;
#X obj 472 197 + 0.5;
#X obj 472 218 int;
#X obj 418 176 + 0.5;
#X obj 418 298 change;
#X obj 418 323 sel 1 0;
#X obj 418 277 expr if($f1==1&&$f2==1&&$f3==1 \, 1 \, 0);
#X obj 423 482 / 1000;
#X obj 423 504 swap 1;
#X obj 423 524 /;
#X obj 467 482 * 44.1;
#X obj 327 412 tabwrite~;
#X msg 327 390 set \$1-sample;
#X obj 388 366 f;
#X obj 362 345 t b b;
#X obj 494 509 tabwrite lengths;
#X obj 424 547 tabwrite freqs;
#X obj 416 71 *~;
#X obj 104 122 tgl 15 0 empty empty input_on/off 17 7 0 10 -262144
-1 -1 0 1;
#X obj 451 259 pipe 20;
#X obj 502 259 pipe 20;
#X msg 486 699 \; \$1-sample const 0;
#X obj 104 141 bng 15 250 50 0 empty empty reset 17 7 0 10 -262144
-1 -1;
#X obj 750 675 outlet midi note;
#X msg 353 727 \; notetimes const 10;
#X obj 445 41 inlet~;
#X obj 257 138 loadbang;
#X floatatom 500 126 5 0 0 0 - - -;
#X floatatom 104 160 5 0 0 1 thresh_(30-70) - -;
#X msg 582 757 \; \$1-sample resize 441000;
#X obj 675 519 realtime;
#X obj 473 410 moses 50;
#X floatatom 543 450 5 0 0 0 - - -;
#X obj 85 229 loadbang;
#X msg 85 250 40;
#X connect 0 0 1 0;
#X connect 1 0 2 0;
#X connect 4 0 5 0;
#X connect 5 0 4 1;
#X connect 5 0 14 0;
#X connect 6 0 4 0;
#X connect 7 0 6 0;
#X connect 8 0 2 0;
#X connect 8 0 0 0;
#X connect 8 0 13 0;
#X connect 9 0 8 0;
#X connect 10 0 9 1;
#X connect 10 1 9 0;
#X connect 11 0 10 0;
#X connect 11 1 12 1;
#X connect 12 0 2 1;
#X connect 12 0 0 0;
#X connect 13 0 12 0;
#X connect 14 0 15 0;
#X connect 15 0 69 0;
#X connect 15 0 3 0;
#X connect 15 0 17 0;
#X connect 15 0 61 0;
#X connect 16 0 11 0;
#X connect 17 0 64 0;
#X connect 18 0 22 0;
#X connect 18 0 20 0;
#X connect 19 0 18 0;
#X connect 19 1 18 1;
#X connect 20 0 21 0;
#X connect 21 0 20 1;
#X connect 21 0 25 0;
#X connect 22 0 23 0;
#X connect 23 0 22 1;
#X connect 23 0 24 0;
#X connect 24 0 26 0;
#X connect 25 0 27 0;
#X connect 26 0 70 0;
#X connect 27 0 70 1;
#X connect 28 0 22 1;
#X connect 29 0 20 1;
#X connect 31 0 28 0;
#X connect 31 0 29 0;
#X connect 32 0 71 0;
#X connect 33 0 35 0;
#X connect 33 0 53 1;
#X connect 34 0 43 0;
#X connect 34 2 40 0;
#X connect 35 0 46 0;
#X connect 35 0 59 0;
#X connect 36 0 35 0;
#X connect 36 1 35 1;
#X connect 37 0 38 0;
#X connect 37 0 67 0;
#X connect 38 0 39 0;
#X connect 39 0 34 0;
#X connect 40 0 41 0;
#X connect 41 0 42 0;
#X connect 42 0 36 0;
#X connect 43 0 33 0;
#X connect 44 0 45 0;
#X connect 45 0 32 0;
#X connect 45 0 54 0;
#X connect 45 1 32 1;
#X connect 46 0 44 0;
#X connect 47 0 48 0;
#X connect 48 0 49 0;
#X connect 48 1 49 1;
#X connect 49 0 56 0;
#X connect 50 0 55 0;
#X connect 52 0 51 0;
#X connect 53 0 52 0;
#X connect 53 0 55 1;
#X connect 53 0 56 1;
#X connect 53 0 19 0;
#X connect 53 0 30 1;
#X connect 53 0 16 0;
#X connect 53 0 63 0;
#X connect 54 0 51 0;
#X connect 54 1 53 0;
#X connect 57 0 37 0;
#X connect 57 0 51 0;
#X connect 57 0 39 1;
#X connect 58 0 57 1;
#X connect 59 0 46 1;
#X connect 59 0 60 0;
#X connect 60 0 46 2;
#X connect 62 0 7 0;
#X connect 65 0 57 0;
#X connect 66 0 62 0;
#X connect 68 0 38 1;
#X connect 70 0 30 0;
#X connect 71 1 47 0;
#X connect 71 1 50 0;
#X connect 71 1 72 0;
#X connect 73 0 74 0;
#X connect 74 0 68 0;
#X coords 0 -1 1 1 130 80 1 100 100;
#X restore 112 82 pd markovdatastuff;
#N canvas 0 23 637 851 data 0;
#N canvas 0 22 450 278 (subpatch) 0;
#X array notetimes 127 float 3;
#A 0 10 10 10 10 10 10 10 10 10 10 10 10 10 10 10 10 10 10 10 10 10
10 10 10 10 10 10 10 10 10 10 10 10 10 10 10 10 10 10 10 10 10 10 10
10 10 10 10 10 10 10 10 10 10 10 10 10 10 10 10 10 10 10 10 10 10 10
10 10 10 10 10 10 10 10 10 10 10 10 10 10 10 10 10 10 10 10 10 10 10
10 10 10 10 10 10 10 10 10 10 10 10 10 10 10 10 10 10 10 10 10 10 10
10 10 10 10 10 10 10 10 10 10 10 10 10 10;
#X coords 0 2000 127 0 200 140 1 0 0;
#X restore 45 114 graph;
#N canvas 54 166 1187 708 samples 0;
#X obj 113 132 sampletablemark1 1;
#X obj 113 150 sampletablemark1 2;
#X obj 113 169 sampletablemark1 3;
#X obj 113 187 sampletablemark1 4;
#X obj 113 205 sampletablemark1 5;
#X obj 113 223 sampletablemark1 6;
#X obj 113 242 sampletablemark1 7;
#X obj 113 260 sampletablemark1 8;
#X obj 113 278 sampletablemark1 9;
#X obj 113 296 sampletablemark1 10;
#X obj 113 315 sampletablemark1 11;
#X obj 113 333 sampletablemark1 12;
#X obj 113 351 sampletablemark1 13;
#X obj 113 369 sampletablemark1 14;
#X obj 113 388 sampletablemark1 15;
#X obj 113 406 sampletablemark1 16;
#X obj 233 132 sampletablemark1 17;
#X obj 233 150 sampletablemark1 18;
#X obj 233 169 sampletablemark1 19;
#X obj 233 187 sampletablemark1 20;
#X obj 233 205 sampletablemark1 21;
#X obj 233 223 sampletablemark1 22;
#X obj 233 242 sampletablemark1 23;
#X obj 233 260 sampletablemark1 24;
#X obj 233 278 sampletablemark1 25;
#X obj 233 296 sampletablemark1 26;
#X obj 233 315 sampletablemark1 27;
#X obj 233 333 sampletablemark1 28;
#X obj 233 351 sampletablemark1 29;
#X obj 233 369 sampletablemark1 30;
#X obj 233 388 sampletablemark1 31;
#X obj 233 406 sampletablemark1 32;
#X obj 354 132 sampletablemark1 33;
#X obj 354 150 sampletablemark1 34;
#X obj 354 169 sampletablemark1 35;
#X obj 354 187 sampletablemark1 36;
#X obj 354 205 sampletablemark1 37;
#X obj 354 223 sampletablemark1 38;
#X obj 354 242 sampletablemark1 39;
#X obj 354 260 sampletablemark1 40;
#X obj 354 278 sampletablemark1 41;
#X obj 354 296 sampletablemark1 42;
#X obj 354 315 sampletablemark1 43;
#X obj 354 333 sampletablemark1 44;
#X obj 354 351 sampletablemark1 45;
#X obj 354 369 sampletablemark1 46;
#X obj 354 388 sampletablemark1 47;
#X obj 354 406 sampletablemark1 48;
#X obj 474 132 sampletablemark1 49;
#X obj 474 150 sampletablemark1 50;
#X obj 474 169 sampletablemark1 51;
#X obj 474 187 sampletablemark1 52;
#X obj 474 205 sampletablemark1 53;
#X obj 474 223 sampletablemark1 54;
#X obj 474 242 sampletablemark1 55;
#X obj 474 260 sampletablemark1 56;
#X obj 474 278 sampletablemark1 57;
#X obj 474 296 sampletablemark1 58;
#X obj 474 315 sampletablemark1 59;
#X obj 474 333 sampletablemark1 60;
#X obj 474 351 sampletablemark1 61;
#X obj 474 369 sampletablemark1 62;
#X obj 474 388 sampletablemark1 63;
#X obj 474 406 sampletablemark1 64;
#X obj 595 132 sampletablemark1 65;
#X obj 595 150 sampletablemark1 66;
#X obj 595 169 sampletablemark1 67;
#X obj 595 187 sampletablemark1 68;
#X obj 595 205 sampletablemark1 69;
#X obj 595 223 sampletablemark1 70;
#X obj 595 242 sampletablemark1 71;
#X obj 595 260 sampletablemark1 72;
#X obj 595 278 sampletablemark1 73;
#X obj 595 296 sampletablemark1 74;
#X obj 595 315 sampletablemark1 75;
#X obj 595 333 sampletablemark1 76;
#X obj 595 351 sampletablemark1 77;
#X obj 595 369 sampletablemark1 78;
#X obj 595 388 sampletablemark1 79;
#X obj 595 406 sampletablemark1 80;
#X obj 715 132 sampletablemark1 81;
#X obj 715 150 sampletablemark1 82;
#X obj 715 169 sampletablemark1 83;
#X obj 715 187 sampletablemark1 84;
#X obj 715 205 sampletablemark1 85;
#X obj 715 223 sampletablemark1 86;
#X obj 715 242 sampletablemark1 87;
#X obj 715 260 sampletablemark1 88;
#X obj 715 278 sampletablemark1 89;
#X obj 715 296 sampletablemark1 90;
#X obj 715 315 sampletablemark1 91;
#X obj 715 333 sampletablemark1 92;
#X obj 715 351 sampletablemark1 93;
#X obj 715 369 sampletablemark1 94;
#X obj 715 388 sampletablemark1 95;
#X obj 715 406 sampletablemark1 96;
#X obj 836 132 sampletablemark1 97;
#X obj 836 150 sampletablemark1 98;
#X obj 836 169 sampletablemark1 99;
#X obj 836 187 sampletablemark1 100;
#X obj 836 205 sampletablemark1 101;
#X obj 836 223 sampletablemark1 102;
#X obj 836 242 sampletablemark1 103;
#X obj 836 260 sampletablemark1 104;
#X obj 836 278 sampletablemark1 105;
#X obj 836 296 sampletablemark1 106;
#X obj 836 315 sampletablemark1 107;
#X obj 836 333 sampletablemark1 108;
#X obj 836 351 sampletablemark1 109;
#X obj 836 369 sampletablemark1 110;
#X obj 836 388 sampletablemark1 111;
#X obj 836 406 sampletablemark1 112;
#X obj 964 132 sampletablemark1 113;
#X obj 964 150 sampletablemark1 114;
#X obj 964 169 sampletablemark1 115;
#X obj 964 187 sampletablemark1 116;
#X obj 964 205 sampletablemark1 117;
#X obj 964 223 sampletablemark1 118;
#X obj 964 242 sampletablemark1 119;
#X obj 964 260 sampletablemark1 120;
#X obj 964 278 sampletablemark1 121;
#X obj 964 296 sampletablemark1 122;
#X obj 964 315 sampletablemark1 123;
#X obj 964 333 sampletablemark1 124;
#X obj 964 351 sampletablemark1 125;
#X obj 964 369 sampletablemark1 126;
#X obj 964 388 sampletablemark1 127;
#X obj 964 406 sampletablemark1 128;
#X restore 64 35 pd samples;
#X obj 64 53 table lengths 127;
#X obj 64 72 table freqs 127;
#X restore 11 11 pd data;
#X obj 112 61 adc~;
#X text 152 17 necessary abstractions: sampletablemark1;
#X text 152 28 next steps: add support for polyphony (histograms for
each note in pitch histograms to predict chords) try spectral analysis
and grouping instead of or in tandem with pitch data look into LPC
for formant recognition;
#N canvas 0 23 1223 714 memory 0;
#X restore 9 35 pd memory;
#X obj 112 220 dac~;
#X floatatom 1532 317 5 0 0 0 - - -;
#N canvas 42 23 1246 775 4partplayer 0;
#X msg 165 190 symbol \$1-hist;
#X obj 96 220 array random;
#X obj 96 365 phasor~;
#X obj 96 386 *~ 44100;
#X obj 160 265 b;
#X obj 160 286 del;
#X obj 95 171 t b f;
#X msg 105 302 0;
#X obj 96 407 tabread4~;
#X msg 157 387 set \$1-sample;
#X obj 157 363 tabread lengths;
#X obj 96 338 tabread freqs;
#X obj 191 246 tabread notetimes;
#X obj 96 241 t b f;
#X msg 380 236 symbol \$1-hist;
#X obj 311 266 array random;
#X obj 311 411 phasor~;
#X obj 311 432 *~ 44100;
#X obj 375 311 b;
#X obj 375 332 del;
#X obj 310 217 t b f;
#X msg 320 348 0;
#X obj 311 453 tabread4~;
#X msg 372 433 set \$1-sample;
#X obj 372 409 tabread lengths;
#X obj 311 384 tabread freqs;
#X obj 406 292 tabread notetimes;
#X obj 311 287 t b f;
#X msg 591 197 symbol \$1-hist;
#X obj 522 227 array random;
#X obj 522 372 phasor~;
#X obj 522 393 *~ 44100;
#X obj 586 272 b;
#X obj 586 293 del;
#X obj 521 178 t b f;
#X msg 531 309 0;
#X obj 522 414 tabread4~;
#X msg 583 394 set \$1-sample;
#X obj 583 370 tabread lengths;
#X obj 522 345 tabread freqs;
#X obj 617 253 tabread notetimes;
#X obj 522 248 t b f;
#X obj 91 525 +~;
#X floatatom 1017 395 5 0 0 0 - - -;
#X msg 1034 216 symbol \$1-hist;
#X obj 965 246 array random;
#X obj 965 391 phasor~;
#X obj 965 412 *~ 44100;
#X obj 1029 291 b;
#X obj 1029 312 del;
#X obj 964 197 t b f;
#X msg 974 328 0;
#X obj 965 433 tabread4~;
#X msg 1026 413 set \$1-sample;
#X obj 1026 389 tabread lengths;
#X obj 965 364 tabread freqs;
#X obj 1060 272 tabread notetimes;
#X obj 965 267 t b f;
#X obj 99 84 inlet;
#X obj 91 546 outlet~;
#X connect 0 0 1 2;
#X connect 1 0 0 0;
#X connect 1 0 9 0;
#X connect 1 0 7 0;
#X connect 1 0 10 0;
#X connect 1 0 11 0;
#X connect 1 0 13 0;
#X connect 2 0 3 0;
#X connect 3 0 8 0;
#X connect 4 0 5 0;
#X connect 5 0 1 0;
#X connect 6 0 1 0;
#X connect 6 1 0 0;
#X connect 7 0 2 1;
#X connect 8 0 42 0;
#X connect 9 0 8 0;
#X connect 10 0 3 1;
#X connect 11 0 2 0;
#X connect 12 0 5 1;
#X connect 13 0 4 0;
#X connect 13 1 12 0;
#X connect 14 0 15 2;
#X connect 15 0 14 0;
#X connect 15 0 23 0;
#X connect 15 0 21 0;
#X connect 15 0 24 0;
#X connect 15 0 25 0;
#X connect 15 0 27 0;
#X connect 16 0 17 0;
#X connect 17 0 22 0;
#X connect 18 0 19 0;
#X connect 19 0 15 0;
#X connect 20 0 15 0;
#X connect 20 1 14 0;
#X connect 21 0 16 1;
#X connect 22 0 42 1;
#X connect 23 0 22 0;
#X connect 24 0 17 1;
#X connect 25 0 16 0;
#X connect 26 0 19 1;
#X connect 27 0 18 0;
#X connect 27 1 26 0;
#X connect 28 0 29 2;
#X connect 29 0 28 0;
#X connect 29 0 37 0;
#X connect 29 0 35 0;
#X connect 29 0 38 0;
#X connect 29 0 39 0;
#X connect 29 0 41 0;
#X connect 30 0 31 0;
#X connect 31 0 36 0;
#X connect 32 0 33 0;
#X connect 33 0 29 0;
#X connect 34 0 29 0;
#X connect 34 1 28 0;
#X connect 35 0 30 1;
#X connect 36 0 42 1;
#X connect 37 0 36 0;
#X connect 38 0 31 1;
#X connect 39 0 30 0;
#X connect 40 0 33 1;
#X connect 41 0 32 0;
#X connect 41 1 40 0;
#X connect 42 0 59 0;
#X connect 44 0 45 2;
#X connect 45 0 44 0;
#X connect 45 0 53 0;
#X connect 45 0 51 0;
#X connect 45 0 54 0;
#X connect 45 0 55 0;
#X connect 45 0 57 0;
#X connect 46 0 47 0;
#X connect 47 0 52 0;
#X connect 48 0 49 0;
#X connect 49 0 45 0;
#X connect 50 0 45 0;
#X connect 50 1 44 0;
#X connect 51 0 46 1;
#X connect 52 0 42 1;
#X connect 53 0 52 0;
#X connect 54 0 47 1;
#X connect 55 0 46 0;
#X connect 56 0 49 1;
#X connect 57 0 48 0;
#X connect 57 1 56 0;
#X connect 58 0 6 0;
#X connect 58 0 50 0;
#X connect 58 0 34 0;
#X connect 58 0 20 0;
#X restore 112 191 pd 4partplayer;
#N canvas 42 23 1246 775 4partplayer 0;
#X msg 165 190 symbol \$1-hist;
#X obj 96 220 array random;
#X obj 96 365 phasor~;
#X obj 96 386 *~ 44100;
#X obj 160 265 b;
#X obj 160 286 del;
#X obj 95 171 t b f;
#X msg 105 302 0;
#X obj 96 407 tabread4~;
#X msg 157 387 set \$1-sample;
#X obj 157 363 tabread lengths;
#X obj 96 338 tabread freqs;
#X obj 191 246 tabread notetimes;
#X obj 96 241 t b f;
#X msg 380 236 symbol \$1-hist;
#X obj 311 266 array random;
#X obj 311 411 phasor~;
#X obj 311 432 *~ 44100;
#X obj 375 311 b;
#X obj 375 332 del;
#X obj 310 217 t b f;
#X msg 320 348 0;
#X obj 311 453 tabread4~;
#X msg 372 433 set \$1-sample;
#X obj 372 409 tabread lengths;
#X obj 311 384 tabread freqs;
#X obj 406 292 tabread notetimes;
#X obj 311 287 t b f;
#X msg 591 197 symbol \$1-hist;
#X obj 522 227 array random;
#X obj 522 372 phasor~;
#X obj 522 393 *~ 44100;
#X obj 586 272 b;
#X obj 586 293 del;
#X obj 521 178 t b f;
#X msg 531 309 0;
#X obj 522 414 tabread4~;
#X msg 583 394 set \$1-sample;
#X obj 583 370 tabread lengths;
#X obj 522 345 tabread freqs;
#X obj 617 253 tabread notetimes;
#X obj 522 248 t b f;
#X obj 91 525 +~;
#X floatatom 1017 395 5 0 0 0 - - -;
#X msg 1034 216 symbol \$1-hist;
#X obj 965 246 array random;
#X obj 965 391 phasor~;
#X obj 965 412 *~ 44100;
#X obj 1029 291 b;
#X obj 1029 312 del;
#X obj 964 197 t b f;
#X msg 974 328 0;
#X obj 965 433 tabread4~;
#X msg 1026 413 set \$1-sample;
#X obj 1026 389 tabread lengths;
#X obj 965 364 tabread freqs;
#X obj 1060 272 tabread notetimes;
#X obj 965 267 t b f;
#X obj 99 84 inlet;
#X obj 91 546 outlet~;
#X connect 0 0 1 2;
#X connect 1 0 0 0;
#X connect 1 0 9 0;
#X connect 1 0 7 0;
#X connect 1 0 10 0;
#X connect 1 0 11 0;
#X connect 1 0 13 0;
#X connect 2 0 3 0;
#X connect 3 0 8 0;
#X connect 4 0 5 0;
#X connect 5 0 1 0;
#X connect 6 0 1 0;
#X connect 6 1 0 0;
#X connect 7 0 2 1;
#X connect 8 0 42 0;
#X connect 9 0 8 0;
#X connect 10 0 3 1;
#X connect 11 0 2 0;
#X connect 12 0 5 1;
#X connect 13 0 4 0;
#X connect 13 1 12 0;
#X connect 14 0 15 2;
#X connect 15 0 14 0;
#X connect 15 0 23 0;
#X connect 15 0 21 0;
#X connect 15 0 24 0;
#X connect 15 0 25 0;
#X connect 15 0 27 0;
#X connect 16 0 17 0;
#X connect 17 0 22 0;
#X connect 18 0 19 0;
#X connect 19 0 15 0;
#X connect 20 0 15 0;
#X connect 20 1 14 0;
#X connect 21 0 16 1;
#X connect 22 0 42 1;
#X connect 23 0 22 0;
#X connect 24 0 17 1;
#X connect 25 0 16 0;
#X connect 26 0 19 1;
#X connect 27 0 18 0;
#X connect 27 1 26 0;
#X connect 28 0 29 2;
#X connect 29 0 28 0;
#X connect 29 0 37 0;
#X connect 29 0 35 0;
#X connect 29 0 38 0;
#X connect 29 0 39 0;
#X connect 29 0 41 0;
#X connect 30 0 31 0;
#X connect 31 0 36 0;
#X connect 32 0 33 0;
#X connect 33 0 29 0;
#X connect 34 0 29 0;
#X connect 34 1 28 0;
#X connect 35 0 30 1;
#X connect 36 0 42 1;
#X connect 37 0 36 0;
#X connect 38 0 31 1;
#X connect 39 0 30 0;
#X connect 40 0 33 1;
#X connect 41 0 32 0;
#X connect 41 1 40 0;
#X connect 42 0 59 0;
#X connect 44 0 45 2;
#X connect 45 0 44 0;
#X connect 45 0 53 0;
#X connect 45 0 51 0;
#X connect 45 0 54 0;
#X connect 45 0 55 0;
#X connect 45 0 57 0;
#X connect 46 0 47 0;
#X connect 47 0 52 0;
#X connect 48 0 49 0;
#X connect 49 0 45 0;
#X connect 50 0 45 0;
#X connect 50 1 44 0;
#X connect 51 0 46 1;
#X connect 52 0 42 1;
#X connect 53 0 52 0;
#X connect 54 0 47 1;
#X connect 55 0 46 0;
#X connect 56 0 49 1;
#X connect 57 0 48 0;
#X connect 57 1 56 0;
#X connect 58 0 6 0;
#X connect 58 0 50 0;
#X connect 58 0 34 0;
#X connect 58 0 20 0;
#X restore 202 191 pd 4partplayer;
#X connect 0 0 8 0;
#X connect 0 0 9 0;
#X connect 2 0 0 0;
#X connect 8 0 6 0;
#X connect 9 0 6 1;
