#N canvas 280 23 1160 851 10;
#X obj 284 197 delay;
#X obj 73 198 bng 15 250 50 0 empty empty empty 17 7 0 10 -261695 -1
-1;
#X obj 322 107 +;
#X obj 321 63 random 100;
#X obj 322 128 % 1000;
#X obj 333 173 int;
#X obj 441 153 r oscbase;
#X obj 336 234 /;
#X obj 333 215 t b f;
#X obj 322 149 / 200;
#X obj 333 194 + 2;
#X obj 479 224 random 100;
#X obj 479 245 / 100;
#X obj 284 124 t b b;
#X obj 336 277 +;
#X obj 516 99 / 300;
#X obj 516 120 int;
#X obj 516 141 + 1;
#X obj 517 57 +;
#X obj 352 84 t f f;
#X obj 336 255 *;
#X obj 516 78 % 1181;
#X obj 705 197 r assigner;
#X obj 705 218 b;
#X obj 390 500 s;
#X obj 705 260 + 1;
#X msg 705 281 symbol ners-\$1;
#X obj 603 261 + 1;
#X msg 603 282 symbol ners-\$1;
#X obj 481 497 s;
#X obj 217 65 r ners-\$1;
#X obj 603 240 random;
#X obj 705 239 random;
#X floatatom 782 197 5 0 0 0 - - -;
#X obj 663 392 + 1;
#X msg 663 413 symbol ners-\$1;
#X obj 663 371 random;
#X obj 638 493 s;
#X obj 780 172 r nernum;
#X obj 105 231 r die;
#X obj 195 410 vcf~;
#X obj 185 340 vline~;
#X obj 290 360 random;
#X obj 377 297 r damps;
#X msg 196 306 1 \, 0 1 0;
#X obj 290 381 + 30;
#X obj 140 508 spats;
#X obj 133 560 throw~ foydr;
#X obj 230 566 throw~ foydl;
#N canvas 0 23 915 826 colorwhef 0;
#X obj 92 343 * -65536;
#X obj 151 344 * -256;
#X obj 197 345 * -1;
#X obj 151 365 +;
#X obj 92 364 +;
#X obj 92 385 - 1;
#X msg 92 406 color \$1;
#X obj 72 115 inlet;
#X obj 72 136 t b b b;
#X obj 72 157 random 128;
#X obj 82 180 random 128;
#X obj 126 201 random 128;
#X obj 92 427 outlet;
#X obj 230 153 r colorpos;
#X obj 230 174 swap 255;
#X obj 230 195 -;
#X obj 172 262 +;
#X obj 76 283 +;
#X obj 82 201 +;
#X connect 0 0 4 0;
#X connect 1 0 3 0;
#X connect 2 0 3 1;
#X connect 3 0 4 1;
#X connect 4 0 5 0;
#X connect 5 0 6 0;
#X connect 6 0 12 0;
#X connect 7 0 8 0;
#X connect 8 0 9 0;
#X connect 8 1 10 0;
#X connect 8 2 11 0;
#X connect 9 0 17 0;
#X connect 10 0 18 0;
#X connect 11 0 16 0;
#X connect 13 0 14 0;
#X connect 13 0 9 1;
#X connect 13 0 11 1;
#X connect 13 0 10 1;
#X connect 14 0 15 0;
#X connect 14 1 15 1;
#X connect 15 0 16 1;
#X connect 15 0 18 1;
#X connect 15 0 17 1;
#X connect 16 0 2 0;
#X connect 17 0 0 0;
#X connect 18 0 1 0;
#X restore 93 67 pd colorwhef;
#X obj 100 100 bng 15 250 50 0 empty empty empty 17 7 0 10 -256225
-191407 -1;
#X obj 767 502 random 100;
#X obj 767 523 moses;
#X obj 835 500 r transmission;
#X obj 767 544 b;
#X obj 582 553 random 100;
#X obj 582 574 moses;
#X obj 650 551 r transmission;
#X obj 582 595 b;
#X obj 834 568 random 100;
#X obj 834 589 moses;
#X obj 902 566 r transmission;
#X obj 834 610 b;
#X connect 0 0 1 0;
#X connect 1 0 51 0;
#X connect 1 0 55 0;
#X connect 1 0 59 0;
#X connect 2 0 4 0;
#X connect 3 0 19 0;
#X connect 4 0 0 1;
#X connect 4 0 2 1;
#X connect 4 0 9 0;
#X connect 5 0 10 0;
#X connect 6 0 7 0;
#X connect 7 0 20 0;
#X connect 8 0 7 0;
#X connect 8 1 7 1;
#X connect 9 0 5 0;
#X connect 10 0 8 0;
#X connect 11 0 12 0;
#X connect 12 0 14 1;
#X connect 13 0 3 0;
#X connect 13 0 0 0;
#X connect 13 0 44 0;
#X connect 13 0 42 0;
#X connect 13 1 11 0;
#X connect 14 0 40 1;
#X connect 15 0 16 0;
#X connect 16 0 17 0;
#X connect 17 0 20 1;
#X connect 18 0 21 0;
#X connect 19 0 2 0;
#X connect 19 1 18 0;
#X connect 20 0 14 0;
#X connect 21 0 15 0;
#X connect 21 0 18 1;
#X connect 22 0 23 0;
#X connect 23 0 31 0;
#X connect 23 0 32 0;
#X connect 23 0 36 0;
#X connect 25 0 26 0;
#X connect 26 0 29 1;
#X connect 27 0 28 0;
#X connect 28 0 24 1;
#X connect 30 0 49 0;
#X connect 30 0 50 0;
#X connect 31 0 27 0;
#X connect 32 0 25 0;
#X connect 33 0 32 1;
#X connect 33 0 31 1;
#X connect 33 0 36 1;
#X connect 34 0 35 0;
#X connect 35 0 37 1;
#X connect 36 0 34 0;
#X connect 38 0 33 0;
#X connect 39 0 0 0;
#X connect 40 0 46 0;
#X connect 41 0 40 0;
#X connect 42 0 45 0;
#X connect 43 0 42 1;
#X connect 44 0 41 0;
#X connect 45 0 40 2;
#X connect 46 0 47 0;
#X connect 46 1 48 0;
#X connect 49 0 50 0;
#X connect 50 0 13 0;
#X connect 51 0 52 0;
#X connect 52 0 54 0;
#X connect 53 0 52 1;
#X connect 54 0 37 0;
#X connect 55 0 56 0;
#X connect 56 0 58 0;
#X connect 57 0 56 1;
#X connect 58 0 24 0;
#X connect 59 0 60 0;
#X connect 60 0 62 0;
#X connect 61 0 60 1;
#X connect 62 0 29 0;
#X coords 0 -1 1 1 15 15 2 100 100;
