#N canvas 755 23 637 775 10;
#X obj 374 204 sel 0;
#X obj 374 144 inlet;
#X obj 147 367 r aposit;
#X obj 131 478 pack f f;
#X obj 218 534 line;
#X obj 176 447 r a;
#X obj 51 382 bng 15 250 50 0 empty empty empty 17 7 0 10 -262144 -1
-1;
#X obj 240 457 del;
#X obj 345 428 r d;
#X obj 300 406 r sposit;
#X obj 300 463 pack f f;
#X obj 375 456 pack f f;
#X obj 375 400 r rposit;
#X obj 420 431 r r;
#X obj 375 427 f;
#X obj 296 434 f;
#X obj 52 436 r startposit;
#X obj 52 456 f;
#X obj 132 435 del 1;
#X obj 218 618 spigot;
#X obj 251 534 r envpswitch;
#X obj 258 554 sel 0;
#X obj 218 640 outlet;
#X obj 132 458 f;
#X obj 329 534 r singposit;
#X obj 329 585 f;
#X obj 329 606 spigot;
#X obj 362 585 tgl 15 0 empty empty empty 17 7 0 10 -262144 -1 -1 1
1;
#X obj 362 565 loadbang;
#X connect 0 0 14 0;
#X connect 0 1 6 0;
#X connect 1 0 0 0;
#X connect 2 0 23 1;
#X connect 3 0 4 0;
#X connect 4 0 19 0;
#X connect 5 0 3 1;
#X connect 5 0 7 1;
#X connect 6 0 7 0;
#X connect 6 0 17 0;
#X connect 6 0 18 0;
#X connect 7 0 15 0;
#X connect 8 0 10 1;
#X connect 9 0 15 1;
#X connect 10 0 4 0;
#X connect 11 0 4 0;
#X connect 12 0 14 1;
#X connect 13 0 11 1;
#X connect 14 0 11 0;
#X connect 15 0 10 0;
#X connect 16 0 17 1;
#X connect 17 0 4 0;
#X connect 18 0 23 0;
#X connect 19 0 22 0;
#X connect 20 0 19 1;
#X connect 20 0 21 0;
#X connect 21 0 25 0;
#X connect 21 0 27 0;
#X connect 23 0 3 0;
#X connect 24 0 25 1;
#X connect 24 0 25 0;
#X connect 25 0 26 0;
#X connect 26 0 22 0;
#X connect 27 0 26 1;
#X connect 28 0 27 0;
