#N canvas 0 23 1090 679 10;
#X obj 388 270 metro;
#X obj 388 291 random 2;
#X obj 388 312 sel 0 1;
#X obj 404 450 *~;
#X obj 271 444 *~;
#X floatatom 164 133 5 20 1000 0 pan_speed - -;
#X obj 391 247 tgl 15 0 empty empty empty 17 7 0 10 -262144 -1 -1 1
1;
#X msg 322 376 1 10;
#X msg 393 376 1 10;
#X obj 404 429 vline~;
#X obj 271 423 vline~;
#X msg 430 376 0 10;
#X msg 359 376 0 10;
#X obj 409 480 *~;
#X obj 277 477 *~;
#X obj 494 485 *~;
#X obj 550 381 / 100;
#X obj 550 402 - 1;
#X obj 550 423 abs;
#X floatatom 164 152 5 0 100 0 panning - -;
#X obj 287 151 inlet~;
#X obj 277 498 *~;
#X obj 409 501 *~;
#X obj 494 506 *~;
#X obj 600 421 / 100;
#X floatatom 164 170 5 0 100 0 vol - -;
#X obj 277 519 outlet~;
#X obj 409 522 outlet~;
#X obj 386 217 loadbang;
#X obj 237 95 loadbang;
#X msg 237 116 60;
#X obj 550 444 / 2;
#X connect 0 0 1 0;
#X connect 1 0 2 0;
#X connect 2 0 7 0;
#X connect 2 0 12 0;
#X connect 2 1 8 0;
#X connect 2 1 11 0;
#X connect 3 0 13 0;
#X connect 4 0 14 0;
#X connect 5 0 0 1;
#X connect 6 0 0 0;
#X connect 7 0 10 0;
#X connect 8 0 9 0;
#X connect 9 0 3 0;
#X connect 10 0 4 0;
#X connect 11 0 10 0;
#X connect 12 0 9 0;
#X connect 13 0 22 0;
#X connect 14 0 21 0;
#X connect 15 0 23 0;
#X connect 16 0 17 0;
#X connect 16 0 13 1;
#X connect 16 0 14 1;
#X connect 17 0 18 0;
#X connect 18 0 31 0;
#X connect 19 0 16 0;
#X connect 20 0 4 1;
#X connect 20 0 3 1;
#X connect 20 0 15 0;
#X connect 21 0 26 0;
#X connect 22 0 27 0;
#X connect 23 0 27 0;
#X connect 23 0 26 0;
#X connect 24 0 23 1;
#X connect 24 0 21 1;
#X connect 24 0 22 1;
#X connect 25 0 24 0;
#X connect 28 0 6 0;
#X connect 29 0 30 0;
#X connect 30 0 5 0;
#X connect 31 0 15 1;
#X coords 0 -1 1 1 100 90 1 100 100;
