#N canvas 0 23 1434 851 10;
#X obj 324 316 random 7;
#X obj 319 406 /;
#X floatatom 488 163 5 0 0 0 - - -;
#X obj 488 183 mtof;
#X obj 328 75 tgl 15 0 empty empty empty 17 7 0 10 -262144 -1 -1 1
1;
#X obj 324 358 swap;
#X obj 380 315 random 7;
#X obj 375 405 /;
#X obj 380 357 swap;
#X obj 443 310 random 7;
#X obj 438 400 /;
#X obj 443 352 swap;
#X obj 496 312 random 7;
#X obj 487 392 /;
#X obj 496 354 swap;
#X obj 380 336 + 1;
#X obj 324 337 + 1;
#X obj 443 331 + 1;
#X obj 496 333 + 1;
#X obj 319 427 osc~;
#X obj 375 426 osc~;
#X obj 438 442 osc~;
#X obj 491 444 osc~;
#X obj 305 492 vline~;
#X obj 305 513 *~;
#X obj 305 534 *~;
#X obj 319 448 +~;
#X obj 305 555 clip~ -1 1;
#X obj 94 324 random 7;
#X obj 89 414 /;
#X floatatom 245 179 5 0 0 0 - - -;
#X obj 245 199 mtof;
#X obj 98 83 tgl 15 0 empty empty empty 17 7 0 10 -262144 -1 -1 1 1
;
#X obj 94 366 swap;
#X obj 152 320 random 7;
#X obj 147 410 /;
#X obj 152 362 swap;
#X obj 209 316 random 7;
#X obj 204 406 /;
#X obj 209 358 swap;
#X obj 267 314 random 7;
#X obj 262 404 /;
#X obj 267 356 swap;
#X obj 152 341 + 1;
#X obj 94 345 + 1;
#X obj 209 337 + 1;
#X obj 267 335 + 1;
#X obj 89 435 osc~;
#X obj 147 431 osc~;
#X obj 204 448 osc~;
#X obj 262 446 osc~;
#X obj 75 500 vline~;
#X obj 75 521 *~;
#X obj 75 542 *~;
#X obj 89 456 +~;
#X obj 75 563 clip~ -1 1;
#X obj 83 602 clip~ -1 1;
#X obj 767 330 random 7;
#X obj 762 420 /;
#X floatatom 931 177 5 0 0 0 - - -;
#X obj 931 197 mtof;
#X obj 771 89 tgl 15 0 empty empty empty 17 7 0 10 -262144 -1 -1 1
1;
#X obj 767 372 swap;
#X obj 823 329 random 7;
#X obj 818 419 /;
#X obj 823 371 swap;
#X obj 886 324 random 7;
#X obj 881 414 /;
#X obj 886 366 swap;
#X obj 939 326 random 7;
#X obj 930 406 /;
#X obj 939 368 swap;
#X obj 823 350 + 1;
#X obj 767 351 + 1;
#X obj 886 345 + 1;
#X obj 939 347 + 1;
#X obj 762 441 osc~;
#X obj 818 440 osc~;
#X obj 881 456 osc~;
#X obj 934 458 osc~;
#X obj 748 506 vline~;
#X obj 748 527 *~;
#X obj 748 548 *~;
#X obj 762 462 +~;
#X obj 748 569 clip~ -1 1;
#X obj 537 338 random 7;
#X obj 532 428 /;
#X floatatom 688 193 5 0 0 0 - - -;
#X obj 688 213 mtof;
#X obj 541 97 tgl 15 0 empty empty empty 17 7 0 10 -262144 -1 -1 1
1;
#X obj 537 380 swap;
#X obj 595 334 random 7;
#X obj 590 424 /;
#X obj 595 376 swap;
#X obj 652 330 random 7;
#X obj 647 420 /;
#X obj 652 372 swap;
#X obj 710 328 random 7;
#X obj 705 418 /;
#X obj 710 370 swap;
#X obj 595 355 + 1;
#X obj 537 359 + 1;
#X obj 652 351 + 1;
#X obj 710 349 + 1;
#X obj 532 449 osc~;
#X obj 590 445 osc~;
#X obj 647 462 osc~;
#X obj 705 460 osc~;
#X obj 518 514 vline~;
#X obj 518 535 *~;
#X obj 518 556 *~;
#X obj 532 470 +~;
#X obj 518 577 clip~ -1 1;
#X obj 526 616 clip~ -1 1;
#X obj 198 645 +~;
#X obj 995 801 +~;
#X obj 656 759 *~ 0.1;
#X obj 551 779 *~ 0.1;
#X obj 870 741 *~ 0.1;
#X obj 765 761 *~ 0.1;
#X obj 661 683 *~ 0.1;
#X obj 556 703 *~ 0.1;
#X obj 875 665 *~ 0.1;
#X obj 770 685 *~ 0.1;
#X msg 305 470 0 \, 1 100 \, 0 105 100;
#X msg 75 478 0 \, 1 100 \, 0 105 100;
#X msg 518 492 0 \, 1 100 \, 0 105 100;
#X msg 748 484 0 \, 1 100 \, 0 105 100;
#X obj 395 766 +~;
#X obj 395 787 lop~ 500;
#X obj 198 666 *~;
#X obj 395 808 hip~ 20;
#X obj 1153 405 random 100;
#X obj 1153 447 sel 1;
#X obj 1140 304 tgl 15 0 empty empty empty 17 7 0 10 -262144 -1 -1
1 1;
#X floatatom 1189 316 5 0 0 0 - - -;
#X floatatom 1253 408 5 0 0 0 - - -;
#X obj 283 681 *~ 0.7;
#X obj 1160 544 tgl 15 0 empty empty empty 17 7 0 10 -262144 -1 -1
0 1;
#X obj 74 733 *~ 0.7;
#X obj 103 124 metro 371;
#X obj 333 116 metro 327;
#X obj 546 138 metro 313;
#X obj 776 130 metro 445;
#X msg 328 591 308;
#X msg 141 675 251;
#X msg 569 657 205;
#X msg 684 642 249;
#X msg 781 638 335;
#X msg 941 618 382;
#X msg 524 825 351;
#X msg 716 797 250;
#X msg 786 808 335;
#X msg 882 817 278;
#X obj 459 675 loadbang;
#X obj 649 93 loadbang;
#X obj 1153 426 < 12;
#X obj 1147 354 metro 218;
#X obj 1088 806 outlet~;
#X obj 282 703 delwrite~ \$0-steve 5000;
#X obj 283 660 delread4~ \$0-steve;
#X obj 90 705 delread4~ \$0-steven;
#X obj 73 755 delwrite~ \$0-steven 5000;
#X obj 244 812 delwrite~ \$0-steves 2000;
#X obj 551 758 delread4~ \$0-steves;
#X obj 556 682 delread4~ \$0-steves;
#X obj 661 662 delread4~ \$0-steves;
#X obj 656 738 delread4~ \$0-steves;
#X obj 770 664 delread4~ \$0-steves;
#X obj 765 740 delread4~ \$0-steves;
#X obj 870 720 delread4~ \$0-steves;
#X obj 875 644 delread4~ \$0-steves;
#X obj 1034 739 expr~ atan($v1);
#X obj 1034 718 /~ 14;
#X obj 37 37 inlet;
#X obj 115 45 unpack f f f f;
#X connect 0 0 16 0;
#X connect 1 0 19 0;
#X connect 2 0 3 0;
#X connect 3 0 5 1;
#X connect 3 0 8 1;
#X connect 3 0 11 1;
#X connect 3 0 14 1;
#X connect 4 0 141 0;
#X connect 5 0 1 0;
#X connect 5 1 1 1;
#X connect 6 0 15 0;
#X connect 7 0 20 0;
#X connect 8 0 7 0;
#X connect 8 1 7 1;
#X connect 9 0 17 0;
#X connect 10 0 21 0;
#X connect 11 0 10 0;
#X connect 11 1 10 1;
#X connect 12 0 18 0;
#X connect 13 0 22 0;
#X connect 14 0 13 0;
#X connect 14 1 13 1;
#X connect 15 0 8 0;
#X connect 16 0 5 0;
#X connect 17 0 11 0;
#X connect 18 0 14 0;
#X connect 19 0 26 0;
#X connect 20 0 26 0;
#X connect 21 0 26 0;
#X connect 22 0 26 0;
#X connect 23 0 24 0;
#X connect 23 0 24 1;
#X connect 24 0 25 0;
#X connect 25 0 27 0;
#X connect 26 0 25 1;
#X connect 27 0 56 0;
#X connect 28 0 44 0;
#X connect 29 0 47 0;
#X connect 30 0 31 0;
#X connect 31 0 33 1;
#X connect 31 0 36 1;
#X connect 31 0 39 1;
#X connect 31 0 42 1;
#X connect 32 0 140 0;
#X connect 33 0 29 0;
#X connect 33 1 29 1;
#X connect 34 0 43 0;
#X connect 35 0 48 0;
#X connect 36 0 35 0;
#X connect 36 1 35 1;
#X connect 37 0 45 0;
#X connect 38 0 49 0;
#X connect 39 0 38 0;
#X connect 39 1 38 1;
#X connect 40 0 46 0;
#X connect 41 0 50 0;
#X connect 42 0 41 0;
#X connect 42 1 41 1;
#X connect 43 0 36 0;
#X connect 44 0 33 0;
#X connect 45 0 39 0;
#X connect 46 0 42 0;
#X connect 47 0 54 0;
#X connect 48 0 54 0;
#X connect 49 0 54 0;
#X connect 50 0 54 0;
#X connect 51 0 52 0;
#X connect 51 0 52 1;
#X connect 52 0 53 0;
#X connect 53 0 55 0;
#X connect 54 0 53 1;
#X connect 55 0 56 0;
#X connect 56 0 114 0;
#X connect 57 0 73 0;
#X connect 58 0 76 0;
#X connect 59 0 60 0;
#X connect 60 0 62 1;
#X connect 60 0 65 1;
#X connect 60 0 68 1;
#X connect 60 0 71 1;
#X connect 61 0 143 0;
#X connect 62 0 58 0;
#X connect 62 1 58 1;
#X connect 63 0 72 0;
#X connect 64 0 77 0;
#X connect 65 0 64 0;
#X connect 65 1 64 1;
#X connect 66 0 74 0;
#X connect 67 0 78 0;
#X connect 68 0 67 0;
#X connect 68 1 67 1;
#X connect 69 0 75 0;
#X connect 70 0 79 0;
#X connect 71 0 70 0;
#X connect 71 1 70 1;
#X connect 72 0 65 0;
#X connect 73 0 62 0;
#X connect 74 0 68 0;
#X connect 75 0 71 0;
#X connect 76 0 83 0;
#X connect 77 0 83 0;
#X connect 78 0 83 0;
#X connect 79 0 83 0;
#X connect 80 0 81 0;
#X connect 80 0 81 1;
#X connect 81 0 82 0;
#X connect 82 0 84 0;
#X connect 83 0 82 1;
#X connect 84 0 113 0;
#X connect 85 0 101 0;
#X connect 86 0 104 0;
#X connect 87 0 88 0;
#X connect 88 0 90 1;
#X connect 88 0 93 1;
#X connect 88 0 96 1;
#X connect 88 0 99 1;
#X connect 89 0 142 0;
#X connect 90 0 86 0;
#X connect 90 1 86 1;
#X connect 91 0 100 0;
#X connect 92 0 105 0;
#X connect 93 0 92 0;
#X connect 93 1 92 1;
#X connect 94 0 102 0;
#X connect 95 0 106 0;
#X connect 96 0 95 0;
#X connect 96 1 95 1;
#X connect 97 0 103 0;
#X connect 98 0 107 0;
#X connect 99 0 98 0;
#X connect 99 1 98 1;
#X connect 100 0 93 0;
#X connect 101 0 90 0;
#X connect 102 0 96 0;
#X connect 103 0 99 0;
#X connect 104 0 111 0;
#X connect 105 0 111 0;
#X connect 106 0 111 0;
#X connect 107 0 111 0;
#X connect 108 0 109 0;
#X connect 108 0 109 1;
#X connect 109 0 110 0;
#X connect 110 0 112 0;
#X connect 111 0 110 1;
#X connect 112 0 113 0;
#X connect 113 0 114 1;
#X connect 114 0 130 0;
#X connect 115 0 173 0;
#X connect 116 0 128 0;
#X connect 117 0 128 0;
#X connect 118 0 128 0;
#X connect 119 0 128 0;
#X connect 120 0 128 0;
#X connect 121 0 128 0;
#X connect 122 0 128 0;
#X connect 123 0 128 0;
#X connect 124 0 23 0;
#X connect 125 0 51 0;
#X connect 126 0 108 0;
#X connect 127 0 80 0;
#X connect 128 0 129 0;
#X connect 129 0 131 0;
#X connect 130 0 159 0;
#X connect 131 0 163 0;
#X connect 132 0 156 0;
#X connect 133 0 138 0;
#X connect 134 0 157 0;
#X connect 135 0 157 1;
#X connect 136 0 156 1;
#X connect 137 0 159 0;
#X connect 138 0 130 1;
#X connect 139 0 162 0;
#X connect 140 0 28 0;
#X connect 140 0 34 0;
#X connect 140 0 37 0;
#X connect 140 0 40 0;
#X connect 140 0 125 0;
#X connect 141 0 0 0;
#X connect 141 0 6 0;
#X connect 141 0 9 0;
#X connect 141 0 12 0;
#X connect 141 0 124 0;
#X connect 142 0 85 0;
#X connect 142 0 91 0;
#X connect 142 0 94 0;
#X connect 142 0 97 0;
#X connect 142 0 126 0;
#X connect 143 0 57 0;
#X connect 143 0 63 0;
#X connect 143 0 66 0;
#X connect 143 0 69 0;
#X connect 143 0 127 0;
#X connect 144 0 160 0;
#X connect 145 0 161 0;
#X connect 146 0 165 0;
#X connect 147 0 166 0;
#X connect 148 0 168 0;
#X connect 149 0 171 0;
#X connect 150 0 164 0;
#X connect 151 0 167 0;
#X connect 152 0 169 0;
#X connect 153 0 170 0;
#X connect 154 0 144 0;
#X connect 154 0 150 0;
#X connect 154 0 151 0;
#X connect 154 0 152 0;
#X connect 154 0 153 0;
#X connect 154 0 149 0;
#X connect 154 0 148 0;
#X connect 154 0 147 0;
#X connect 154 0 146 0;
#X connect 154 0 145 0;
#X connect 155 0 32 0;
#X connect 155 0 4 0;
#X connect 155 0 89 0;
#X connect 155 0 61 0;
#X connect 155 0 134 0;
#X connect 156 0 133 0;
#X connect 157 0 132 0;
#X connect 160 0 137 0;
#X connect 160 0 162 0;
#X connect 161 0 139 0;
#X connect 161 0 163 0;
#X connect 164 0 115 0;
#X connect 164 0 117 0;
#X connect 165 0 121 0;
#X connect 165 0 115 0;
#X connect 166 0 120 0;
#X connect 166 0 115 0;
#X connect 167 0 115 0;
#X connect 167 0 116 0;
#X connect 168 0 123 0;
#X connect 168 0 115 0;
#X connect 169 0 119 0;
#X connect 169 0 115 0;
#X connect 170 0 118 0;
#X connect 170 0 115 0;
#X connect 171 0 122 0;
#X connect 171 0 115 0;
#X connect 172 0 158 0;
#X connect 173 0 172 0;
#X connect 174 0 175 0;
#X connect 175 0 30 0;
#X connect 175 1 2 0;
#X connect 175 2 87 0;
#X connect 175 3 59 0;
