#N canvas 0 23 1299 851 10;
#X obj 242 160 grainhead3;
#X obj 226 102 loadbang;
#X obj 226 123 del 10;
#X obj 231 19 inlet;
#X obj 231 40 stripnote;
#X obj 282 130 pow;
#X obj 282 114 t b f;
#X msg 226 80 1.05946;
#X obj 226 64 loadbang;
#X obj 282 98 - 60;
#X obj 227 725 throw~ lbus;
#X obj 330 724 throw~ rbus;
#X obj 77 520 r a;
#X obj 162 376 sel 0;
#X obj 123 520 r sraw;
#X obj 206 518 r r;
#X obj 100 520 r d;
#X msg 54 567 1 \$2 \, \$4 \$3 \$2;
#X msg 158 566 0 \$2;
#X obj 158 603 vline~;
#X obj 54 544 pack f f f f;
#X obj 161 543 pack f f;
#X obj 227 665 *~;
#X obj 330 665 *~;
#X obj 345 622 grainoresfilter3;
#X obj 242 622 grainoresfilter3;
#X obj 324 114 positgrainoenv;
#X obj 242 184 grainhead3;
#X obj 242 232 grainhead3;
#X obj 242 207 grainhead3;
#X obj 242 254 grainhead3;
#X obj 345 161 grainhead3;
#X obj 345 185 grainhead3;
#X obj 345 233 grainhead3;
#X obj 345 208 grainhead3;
#X obj 345 255 grainhead3;
#X obj 242 275 grainhead3;
#X obj 242 299 grainhead3;
#X obj 242 347 grainhead3;
#X obj 242 322 grainhead3;
#X obj 242 369 grainhead3;
#X obj 345 276 grainhead3;
#X obj 345 300 grainhead3;
#X obj 345 348 grainhead3;
#X obj 345 323 grainhead3;
#X obj 345 370 grainhead3;
#X obj 242 391 grainhead3;
#X obj 242 415 grainhead3;
#X obj 242 463 grainhead3;
#X obj 242 438 grainhead3;
#X obj 242 485 grainhead3;
#X obj 345 392 grainhead3;
#X obj 345 416 grainhead3;
#X obj 345 464 grainhead3;
#X obj 345 439 grainhead3;
#X obj 345 486 grainhead3;
#X obj 242 506 grainhead3;
#X obj 242 530 grainhead3;
#X obj 242 578 grainhead3;
#X obj 242 553 grainhead3;
#X obj 242 600 grainhead3;
#X obj 345 507 grainhead3;
#X obj 345 531 grainhead3;
#X obj 345 579 grainhead3;
#X obj 345 554 grainhead3;
#X obj 345 601 grainhead3;
#X connect 0 0 27 0;
#X connect 0 1 27 1;
#X connect 0 2 27 2;
#X connect 0 3 27 3;
#X connect 1 0 2 0;
#X connect 2 0 0 1;
#X connect 2 0 31 1;
#X connect 3 0 4 0;
#X connect 4 0 13 0;
#X connect 4 0 24 1;
#X connect 4 0 25 1;
#X connect 4 0 26 0;
#X connect 4 1 9 0;
#X connect 5 0 0 2;
#X connect 5 0 31 2;
#X connect 6 0 5 0;
#X connect 6 1 5 1;
#X connect 7 0 5 0;
#X connect 8 0 7 0;
#X connect 9 0 6 0;
#X connect 12 0 20 1;
#X connect 13 0 21 0;
#X connect 13 1 20 0;
#X connect 14 0 20 3;
#X connect 15 0 21 1;
#X connect 16 0 20 2;
#X connect 17 0 19 0;
#X connect 18 0 19 0;
#X connect 19 0 22 0;
#X connect 19 0 23 0;
#X connect 20 0 17 0;
#X connect 21 0 18 0;
#X connect 22 0 10 0;
#X connect 23 0 11 0;
#X connect 24 0 23 1;
#X connect 25 0 22 1;
#X connect 26 0 0 3;
#X connect 26 0 31 3;
#X connect 27 0 29 0;
#X connect 27 1 29 1;
#X connect 27 2 29 2;
#X connect 27 3 29 3;
#X connect 28 0 30 0;
#X connect 28 1 30 1;
#X connect 28 2 30 2;
#X connect 28 3 30 3;
#X connect 29 0 28 0;
#X connect 29 1 28 1;
#X connect 29 2 28 2;
#X connect 29 3 28 3;
#X connect 30 0 36 0;
#X connect 30 1 36 1;
#X connect 30 2 36 2;
#X connect 30 3 36 3;
#X connect 31 0 32 0;
#X connect 31 1 32 1;
#X connect 31 2 32 2;
#X connect 31 3 32 3;
#X connect 32 0 34 0;
#X connect 32 1 34 1;
#X connect 32 2 34 2;
#X connect 32 3 34 3;
#X connect 33 0 35 0;
#X connect 33 1 35 1;
#X connect 33 2 35 2;
#X connect 33 3 35 3;
#X connect 34 0 33 0;
#X connect 34 1 33 1;
#X connect 34 2 33 2;
#X connect 34 3 33 3;
#X connect 35 0 41 0;
#X connect 35 1 41 1;
#X connect 35 2 41 2;
#X connect 35 3 41 3;
#X connect 36 0 37 0;
#X connect 36 1 37 1;
#X connect 36 2 37 2;
#X connect 36 3 37 3;
#X connect 37 0 39 0;
#X connect 37 1 39 1;
#X connect 37 2 39 2;
#X connect 37 3 39 3;
#X connect 38 0 40 0;
#X connect 38 1 40 1;
#X connect 38 2 40 2;
#X connect 38 3 40 3;
#X connect 39 0 38 0;
#X connect 39 1 38 1;
#X connect 39 2 38 2;
#X connect 39 3 38 3;
#X connect 40 0 46 0;
#X connect 40 1 46 1;
#X connect 40 2 46 2;
#X connect 40 3 46 3;
#X connect 41 0 42 0;
#X connect 41 1 42 1;
#X connect 41 2 42 2;
#X connect 41 3 42 3;
#X connect 42 0 44 0;
#X connect 42 1 44 1;
#X connect 42 2 44 2;
#X connect 42 3 44 3;
#X connect 43 0 45 0;
#X connect 43 1 45 1;
#X connect 43 2 45 2;
#X connect 43 3 45 3;
#X connect 44 0 43 0;
#X connect 44 1 43 1;
#X connect 44 2 43 2;
#X connect 44 3 43 3;
#X connect 45 0 51 0;
#X connect 45 1 51 1;
#X connect 45 2 51 2;
#X connect 45 3 51 3;
#X connect 46 0 47 0;
#X connect 46 1 47 1;
#X connect 46 2 47 2;
#X connect 46 3 47 3;
#X connect 47 0 49 0;
#X connect 47 1 49 1;
#X connect 47 2 49 2;
#X connect 47 3 49 3;
#X connect 48 0 50 0;
#X connect 48 1 50 1;
#X connect 48 2 50 2;
#X connect 48 3 50 3;
#X connect 49 0 48 0;
#X connect 49 1 48 1;
#X connect 49 2 48 2;
#X connect 49 3 48 3;
#X connect 50 0 56 0;
#X connect 50 1 56 1;
#X connect 50 2 56 2;
#X connect 50 3 56 3;
#X connect 51 0 52 0;
#X connect 51 1 52 1;
#X connect 51 2 52 2;
#X connect 51 3 52 3;
#X connect 52 0 54 0;
#X connect 52 1 54 1;
#X connect 52 2 54 2;
#X connect 52 3 54 3;
#X connect 53 0 55 0;
#X connect 53 1 55 1;
#X connect 53 2 55 2;
#X connect 53 3 55 3;
#X connect 54 0 53 0;
#X connect 54 1 53 1;
#X connect 54 2 53 2;
#X connect 54 3 53 3;
#X connect 55 0 61 0;
#X connect 55 1 61 1;
#X connect 55 2 61 2;
#X connect 55 3 61 3;
#X connect 56 0 57 0;
#X connect 56 1 57 1;
#X connect 56 2 57 2;
#X connect 56 3 57 3;
#X connect 57 0 59 0;
#X connect 57 1 59 1;
#X connect 57 2 59 2;
#X connect 57 3 59 3;
#X connect 58 0 60 0;
#X connect 58 1 60 1;
#X connect 58 2 60 2;
#X connect 58 3 60 3;
#X connect 59 0 58 0;
#X connect 59 1 58 1;
#X connect 59 2 58 2;
#X connect 59 3 58 3;
#X connect 60 0 25 0;
#X connect 61 0 62 0;
#X connect 61 1 62 1;
#X connect 61 2 62 2;
#X connect 61 3 62 3;
#X connect 62 0 64 0;
#X connect 62 1 64 1;
#X connect 62 2 64 2;
#X connect 62 3 64 3;
#X connect 63 0 65 0;
#X connect 63 1 65 1;
#X connect 63 2 65 2;
#X connect 63 3 65 3;
#X connect 64 0 63 0;
#X connect 64 1 63 1;
#X connect 64 2 63 2;
#X connect 64 3 63 3;
#X connect 65 0 24 0;
