#N canvas 0 23 680 460 10;
#X obj 65 273 osc~;
#X obj 65 211 mtof;
#X obj 126 273 osc~;
#X obj 65 299 expr~ (if ($v1 > $v3 \, -1 \, 1) + (if ($v2 > $v3 \,
-1 \, 1) / 2)) / 2, f 21;
#X obj 126 227 expr~ (($v1 * ($f2 / 1000)) + 1.5) * $f3, f 15;
#X obj 188 273 r~ pwmlfo;
#X obj 169 205 r detune;
#X obj 126 186 r~ dtlfo;
#X obj 286 104 sel 0;
#X obj 286 301 line~;
#X obj 65 342 *~;
#X obj 286 221 pack f f;
#X msg 286 196 0;
#X msg 343 197 1;
#X obj 343 221 pack f f;
#X obj 400 242 f;
#X obj 400 263 pack f f;
#X obj 343 167 b;
#X obj 400 221 del;
#X msg 286 125 stop;
#X obj 331 111 r release;
#X obj 388 132 r attack;
#X obj 433 155 r decay;
#X obj 456 212 r sustain;
#X obj 135 83 unpack f f;
#X obj 137 44 inlet;
#X obj 65 363 outlet~;
#X connect 0 0 3 0;
#X connect 1 0 0 0;
#X connect 1 0 4 2;
#X connect 2 0 3 1;
#X connect 3 0 10 0;
#X connect 4 0 2 0;
#X connect 5 0 3 2;
#X connect 6 0 4 1;
#X connect 7 0 4 0;
#X connect 8 0 12 0;
#X connect 8 0 19 0;
#X connect 8 1 17 0;
#X connect 9 0 10 1;
#X connect 10 0 26 0;
#X connect 11 0 9 0;
#X connect 12 0 11 0;
#X connect 13 0 14 0;
#X connect 14 0 9 0;
#X connect 15 0 16 0;
#X connect 16 0 9 0;
#X connect 17 0 18 0;
#X connect 17 0 13 0;
#X connect 18 0 15 0;
#X connect 19 0 18 0;
#X connect 20 0 11 1;
#X connect 21 0 18 1;
#X connect 21 0 14 1;
#X connect 22 0 16 1;
#X connect 23 0 15 1;
#X connect 24 0 1 0;
#X connect 24 1 8 0;
#X connect 25 0 24 0;
