#N canvas 0 23 860 580 10;
#X obj 374 217 adc~;
#X obj 374 277 env~;
#X obj 374 237 hip~ 20;
#X obj 374 298 t b f;
#X obj 374 319 /;
#X obj 320 278 loadbang;
#X msg 320 298 100;
#X obj 377 351 *~;
#X obj 374 257 *~ 10;
#X obj 120 128 bng 30 250 50 0 empty empty file 0 -7 0 10 -262144 -1
-1;
#X obj 541 129 openpanel;
#X msg 541 150 read -resize \$1 quan;
#X obj 541 171 soundfiler;
#X floatatom 541 192 5 0 0 0 - - -, f 5;
#X msg 326 418 \; quan resize 44100 \; quan normalize;
#X obj 590 212 b;
#X msg 590 233 \; quan normalize;
#X obj 329 138 del 1050;
#X obj 143 259 tabwrite~ quan;
#X obj 153 128 bng 30 250 50 0 empty empty rec 0 -7 0 10 -262144 -1
-1;
#X obj 541 217 s samps;
#X msg 419 180 44100;
#X obj 419 158 loadbang;
#X connect 0 0 2 0;
#X connect 1 0 3 0;
#X connect 2 0 8 0;
#X connect 3 0 4 0;
#X connect 3 1 4 1;
#X connect 4 0 7 0;
#X connect 5 0 6 0;
#X connect 6 0 4 0;
#X connect 7 0 18 0;
#X connect 8 0 1 0;
#X connect 8 0 7 1;
#X connect 9 0 10 0;
#X connect 10 0 11 0;
#X connect 11 0 12 0;
#X connect 12 0 13 0;
#X connect 13 0 15 0;
#X connect 13 0 20 0;
#X connect 15 0 16 0;
#X connect 17 0 14 0;
#X connect 19 0 18 0;
#X connect 19 0 17 0;
#X connect 19 0 21 0;
#X connect 21 0 20 0;
#X connect 22 0 21 0;
#X coords 0 -1 1 1 85 60 1 100 100;
