#N canvas 0 23 1068 796 10;
#X obj 200 472 bob~;
#X obj 221 449 r resonance;
#X obj 210 198 pack f f f f;
#X msg 210 219 1 \$2 \, \$4 \$3 \$2;
#X obj 310 197 pack f f;
#X obj 310 177 sel 0;
#X msg 310 218 0 \$2;
#X obj 210 252 vline~;
#X obj 210 288 *~;
#X obj 239 272 r cutoff;
#X obj 217 154 r afp;
#X obj 254 154 r dfp;
#X obj 289 154 r sf;
#X obj 323 154 r rfp;
#X obj 254 291 tgl 15 0 empty filterenvonoff empty 17 7 0 10 -262144
-1 -1 0 1;
#X obj 254 311 b;
#X obj 254 356 tgl 15 0 empty empty empty 17 7 0 10 -262144 -1 -1 1
1;
#X obj 254 334 loadbang;
#X obj 210 356 *~;
#X obj 210 427 +~;
#X obj 239 404 *;
#X obj 200 128 inlet~;
#X obj 310 127 inlet;
#X obj 200 493 outlet~;
#X obj 254 376 t b f;
#X connect 0 0 23 0;
#X connect 1 0 0 2;
#X connect 2 0 3 0;
#X connect 3 0 7 0;
#X connect 4 0 6 0;
#X connect 5 0 4 0;
#X connect 5 1 2 0;
#X connect 6 0 7 0;
#X connect 7 0 8 0;
#X connect 8 0 18 0;
#X connect 9 0 8 1;
#X connect 9 0 20 0;
#X connect 10 0 2 1;
#X connect 11 0 2 2;
#X connect 12 0 2 3;
#X connect 13 0 4 1;
#X connect 14 0 15 0;
#X connect 14 0 18 1;
#X connect 15 0 16 0;
#X connect 16 0 24 0;
#X connect 17 0 16 0;
#X connect 18 0 19 0;
#X connect 19 0 0 1;
#X connect 20 0 19 1;
#X connect 21 0 0 0;
#X connect 22 0 5 0;
#X connect 24 0 20 0;
#X connect 24 1 20 1;
