#N canvas 24 23 1416 819 10;
#X msg 124 290 1;
#X msg 153 311 2;
#X msg 182 332 3;
#X msg 211 353 4;
#X msg 240 374 5;
#X msg 269 395 6;
#X floatatom 124 530 5 0 0 0 - - -, f 5;
#X msg 298 416 7;
#X msg 327 437 8;
#X msg 357 458 9;
#X msg 386 479 10;
#X msg 415 500 11;
#X msg 444 520 12;
#X obj 124 550 outlet;
#X obj 124 271 moses 1;
#X obj 153 290 moses 1.5;
#X obj 182 311 moses 1.83;
#X obj 211 332 moses 2.08;
#X obj 240 353 moses 2.28;
#X obj 269 374 moses 2.45;
#X obj 298 395 moses 2.59;
#X obj 327 416 moses 2.72;
#X obj 357 437 moses 2.83;
#X obj 386 458 moses 2.93;
#X obj 415 479 moses 3.02;
#X obj 444 499 moses 3.1;
#X obj 124 223 random 310;
#X obj 124 250 / 100;
#X msg 476 201 310;
#X msg 449 201 302;
#X msg 422 201 293;
#X msg 395 201 283;
#X msg 368 201 272;
#X msg 341 201 259;
#X msg 314 201 245;
#X msg 287 201 228;
#X msg 260 201 208;
#X msg 233 201 183;
#X msg 206 201 150;
#X msg 179 201 100;
#X obj 180 164 int;
#X obj 180 182 sel 1 2 3 4 5 6 7 8 9 10 11 12, f 54;
#X obj 180 144 r harms;
#X obj 127 118 metro;
#X obj 128 93 tgl 15 0 empty empty empty 17 7 0 10 -262144 -1 -1 1
1;
#X obj 128 62 loadbang;
#X obj 172 91 random;
#X floatatom 223 56 5 0 0 0 - - -, f 5;
#X obj 223 76 b;
#X obj 172 112 + 5;
#X obj 228 32 r timerg;
#X connect 0 0 6 0;
#X connect 1 0 6 0;
#X connect 2 0 6 0;
#X connect 3 0 6 0;
#X connect 4 0 6 0;
#X connect 5 0 6 0;
#X connect 6 0 13 0;
#X connect 7 0 6 0;
#X connect 8 0 6 0;
#X connect 9 0 6 0;
#X connect 10 0 6 0;
#X connect 11 0 6 0;
#X connect 12 0 6 0;
#X connect 14 0 0 0;
#X connect 14 1 15 0;
#X connect 15 0 1 0;
#X connect 15 1 16 0;
#X connect 16 0 2 0;
#X connect 16 1 17 0;
#X connect 17 0 3 0;
#X connect 17 1 18 0;
#X connect 18 0 4 0;
#X connect 18 1 19 0;
#X connect 19 0 5 0;
#X connect 19 1 20 0;
#X connect 20 0 7 0;
#X connect 20 1 21 0;
#X connect 21 0 8 0;
#X connect 21 1 22 0;
#X connect 22 0 9 0;
#X connect 22 1 23 0;
#X connect 23 0 10 0;
#X connect 23 1 24 0;
#X connect 24 0 11 0;
#X connect 24 1 25 0;
#X connect 25 0 12 0;
#X connect 26 0 27 0;
#X connect 27 0 14 0;
#X connect 28 0 26 1;
#X connect 29 0 26 1;
#X connect 30 0 26 1;
#X connect 31 0 26 1;
#X connect 32 0 26 1;
#X connect 33 0 26 1;
#X connect 34 0 26 1;
#X connect 35 0 26 1;
#X connect 36 0 26 1;
#X connect 37 0 26 1;
#X connect 38 0 26 1;
#X connect 39 0 26 1;
#X connect 40 0 41 0;
#X connect 41 0 39 0;
#X connect 41 1 38 0;
#X connect 41 2 37 0;
#X connect 41 3 36 0;
#X connect 41 4 35 0;
#X connect 41 5 34 0;
#X connect 41 6 33 0;
#X connect 41 7 32 0;
#X connect 41 8 31 0;
#X connect 41 9 30 0;
#X connect 41 10 29 0;
#X connect 41 11 28 0;
#X connect 42 0 40 0;
#X connect 43 0 26 0;
#X connect 44 0 43 0;
#X connect 45 0 44 0;
#X connect 45 0 46 0;
#X connect 46 0 49 0;
#X connect 47 0 48 0;
#X connect 47 0 46 1;
#X connect 48 0 46 0;
#X connect 49 0 43 1;
#X connect 50 0 47 0;
