#N canvas 0 23 1433 851 10;
#X obj 1340 477 dac~;
#X floatatom 1354 356 5 0 0 0 - - -;
#X obj 1354 375 s oscbase;
#X obj 1229 642 scoper;
#X obj 564 261 nerdon 1;
#X obj 383 144 nerdon 2;
#X obj 245 296 nerdon 3;
#X obj 391 305 nerdon 4;
#X obj 297 308 nerdon 5;
#X obj 263 218 nerdon 6;
#X obj 334 228 nerdon 7;
#X obj 416 138 nerdon 8;
#X obj 368 287 nerdon 9;
#X obj 306 194 nerdon 10;
#X obj 1240 127 bng 15 250 50 0 empty empty empty 17 7 0 10 -262144
-1 -1;
#X obj 1240 147 s assigner;
#X floatatom 1238 84 5 0 0 0 - - -;
#X obj 1238 104 s nernum;
#X obj 199 146 nerdon 11;
#X obj 304 164 nerdon 12;
#X obj 268 181 nerdon 13;
#X obj 367 199 nerdon 14;
#X obj 288 282 nerdon 15;
#X obj 437 274 nerdon 16;
#X obj 274 308 nerdon 17;
#X obj 302 228 nerdon 18;
#X obj 263 256 nerdon 19;
#X obj 292 127 nerdon 20;
#X obj 585 320 nerdon 21;
#X obj 595 261 nerdon 22;
#X obj 438 129 nerdon 23;
#X obj 178 342 nerdon 24;
#X obj 304 262 nerdon 25;
#X obj 202 345 nerdon 26;
#X obj 355 309 nerdon 27;
#X obj 368 342 nerdon 28;
#X obj 419 316 nerdon 29;
#X obj 258 356 nerdon 30;
#X obj 515 142 nerdon 31;
#X obj 515 165 nerdon 32;
#X obj 471 259 nerdon 33;
#X obj 457 318 nerdon 34;
#X obj 518 288 nerdon 35;
#X obj 573 296 nerdon 36;
#X obj 409 76 nerdon 37;
#X obj 392 83 nerdon 38;
#X obj 397 272 nerdon 39;
#X obj 417 178 nerdon 40;
#X obj 307 356 nerdon 41;
#X obj 346 349 nerdon 42;
#X obj 424 230 nerdon 43;
#X obj 584 346 nerdon 44;
#X obj 661 300 nerdon 45;
#X obj 620 317 nerdon 46;
#X obj 445 218 nerdon 47;
#X obj 205 369 nerdon 48;
#X obj 224 349 nerdon 49;
#X obj 373 380 nerdon 50;
#X obj 1080 102 s die;
#X msg 1080 82 stop;
#X obj 484 379 nerdon 51;
#X obj 609 379 nerdon 52;
#X obj 528 374 nerdon 53;
#X obj 427 349 nerdon 54;
#X obj 565 316 nerdon 55;
#X obj 544 342 nerdon 56;
#X obj 558 226 nerdon 57;
#X obj 568 142 nerdon 58;
#X obj 451 56 nerdon 59;
#X obj 478 106 nerdon 60;
#X obj 391 204 nerdon 61;
#X obj 186 297 nerdon 62;
#X obj 194 320 nerdon 63;
#X obj 222 316 nerdon 64;
#X obj 272 146 nerdon 65;
#X obj 368 260 nerdon 66;
#X obj 341 133 nerdon 67;
#X obj 327 272 nerdon 68;
#X obj 441 168 nerdon 69;
#X obj 496 212 nerdon 70;
#X obj 1116 103 s damps;
#X floatatom 1116 83 5 0 0 0 - - -;
#X obj 1339 435 *~ 5;
#X obj 1339 414 catch~ foydr;
#X obj 1211 460 catch~ foydl;
#X obj 1211 481 *~ 5;
#X floatatom 1011 82 5 0 0 0 - - -;
#X obj 1011 102 s colorpos;
#X obj 1344 110 b;
#X floatatom 1115 265 5 0 0 0 - - -;
#X obj 1117 300 s transmission;
#X text 994 464 dpendencies:nerdon \, spats;
#X text 966 414 neural diffusion in forevertime;
#X connect 1 0 2 0;
#X connect 14 0 15 0;
#X connect 16 0 17 0;
#X connect 16 0 88 0;
#X connect 59 0 58 0;
#X connect 81 0 80 0;
#X connect 82 0 0 0;
#X connect 82 0 3 0;
#X connect 83 0 82 0;
#X connect 84 0 85 0;
#X connect 85 0 0 1;
#X connect 86 0 87 0;
#X connect 88 0 14 0;
#X connect 89 0 90 0;
