#N canvas 299 23 1013 674 10;
#X obj 971 53 inlet~;
#X obj 1097 223 block~ 1;
#X obj 96 516 pack f 5;
#X obj 96 537 vline~;
#X obj 184 510 pack f 5;
#X obj 184 531 vline~;
#X obj 206 381 abs;
#X obj 69 173 hsl 128 15 0 80 0 0 empty empty empty -2 -8 0 10 -262144
-1 -1 0 1;
#X obj 183 599 outlet~;
#X obj 95 605 outlet~;
#X obj 31 105 snapshot~;
#X obj 52 58 tgl 15 0 empty empty empty 17 7 0 10 -262144 -1 -1 0 1
;
#X obj 52 78 metro 20;
#X obj 31 126 + 1;
#X obj 311 458 hsl 128 15 0.5 5 0 0 empty empty empty -2 -8 0 10 -262144
-1 -1 11396 1;
#X obj 308 499 /;
#X obj 184 579 *~;
#X obj 308 520 pack f 5;
#X obj 308 541 vline~;
#X obj 95 583 *~;
#X obj 308 478 swap 1;
#X obj 279 362 snapshot~;
#X obj 300 315 tgl 15 0 empty empty empty 17 7 0 10 -262144 -1 -1 0
1;
#X obj 300 335 metro 20;
#X obj 279 383 + 1;
#X obj 279 425 + 1;
#X obj 97 223 vsl 15 128 0 160 0 0 empty empty empty 0 -9 0 10 -262144
-1 -1 12700 1;
#X obj 97 380 abs;
#X obj 101 405 pow 2;
#X obj 96 446 +;
#X obj 138 404 pow 2;
#X obj 186 450 +;
#X obj 96 467 sqrt;
#X obj 132 287 snapshot~;
#X obj 153 240 tgl 15 0 empty empty empty 17 7 0 10 -262144 -1 -1 0
1;
#X obj 153 260 metro 20;
#X obj 132 308 + 1;
#X obj 205 403 pow 2;
#X obj 184 471 sqrt;
#X obj 1097 200 samplerate~ 192000;
#X obj 96 490 / 192;
#X obj 184 490 / 192;
#X obj 206 360 - 80;
#X obj 31 147 * 40;
#X obj 132 329 * 80;
#X obj 97 359 - 80;
#X obj 131 199 osc~ 0.05;
#X obj 30 17 osc~ 0.04;
#X obj 278 274 osc~ 0.06;
#X obj 279 404 * 1;
#X obj 311 146 random 100;
#X obj 377 146 random 100;
#X obj 445 146 random 100;
#X obj 184 557 delread4~ \$0-fggd;
#X obj 96 563 delread4~ \$0-fggd;
#X obj 971 74 delwrite~ \$0-fggd 20;
#X text 90 152 left-right;
#X obj 311 167 / 1000;
#X obj 377 167 / 1000;
#X obj 445 167 / 1000;
#X obj 302 40 loadbang;
#X text 355 430 distance;
#X text 40 285 height;
#X obj 213 429 t b f;
#X obj 138 425 t b f;
#X connect 0 0 55 0;
#X connect 2 0 3 0;
#X connect 3 0 54 0;
#X connect 4 0 5 0;
#X connect 5 0 53 0;
#X connect 6 0 37 0;
#X connect 7 0 30 0;
#X connect 7 0 42 0;
#X connect 10 0 13 0;
#X connect 11 0 12 0;
#X connect 12 0 10 0;
#X connect 13 0 43 0;
#X connect 14 0 20 0;
#X connect 15 0 17 0;
#X connect 16 0 8 0;
#X connect 17 0 18 0;
#X connect 18 0 16 1;
#X connect 18 0 19 1;
#X connect 19 0 9 0;
#X connect 20 0 15 0;
#X connect 20 1 15 1;
#X connect 21 0 24 0;
#X connect 22 0 23 0;
#X connect 23 0 21 0;
#X connect 24 0 49 0;
#X connect 25 0 14 0;
#X connect 26 0 45 0;
#X connect 27 0 28 0;
#X connect 28 0 29 0;
#X connect 28 0 31 0;
#X connect 29 0 32 0;
#X connect 30 0 64 0;
#X connect 31 0 38 0;
#X connect 32 0 40 0;
#X connect 33 0 36 0;
#X connect 34 0 35 0;
#X connect 35 0 33 0;
#X connect 36 0 44 0;
#X connect 37 0 63 0;
#X connect 38 0 41 0;
#X connect 40 0 2 0;
#X connect 41 0 4 0;
#X connect 42 0 6 0;
#X connect 43 0 7 0;
#X connect 44 0 26 0;
#X connect 45 0 27 0;
#X connect 46 0 33 0;
#X connect 47 0 10 0;
#X connect 48 0 21 0;
#X connect 49 0 25 0;
#X connect 50 0 57 0;
#X connect 51 0 58 0;
#X connect 52 0 59 0;
#X connect 53 0 16 0;
#X connect 54 0 19 0;
#X connect 57 0 47 0;
#X connect 58 0 46 0;
#X connect 59 0 48 0;
#X connect 60 0 50 0;
#X connect 60 0 22 0;
#X connect 60 0 11 0;
#X connect 60 0 34 0;
#X connect 60 0 51 0;
#X connect 60 0 52 0;
#X connect 63 0 31 0;
#X connect 63 1 31 1;
#X connect 64 0 29 0;
#X connect 64 1 29 1;
