#N canvas 189 23 1251 851 10;
#X obj 368 185 stevpan;
#X obj 368 163 steventiles;
#X obj 440 280 throw~ busr;
#X obj 368 280 throw~ busl;
#X obj 512 185 stevpan;
#X obj 512 163 steventiles;
#X obj 584 280 throw~ busr;
#X obj 512 280 throw~ busl;
#X obj 80 185 stevpan;
#X obj 80 163 steventiles;
#X obj 152 280 throw~ busr;
#X obj 80 280 throw~ busl;
#X obj 224 185 stevpan;
#X obj 224 163 steventiles;
#X obj 296 280 throw~ busr;
#X obj 224 280 throw~ busl;
#X obj 300 322 catch~ busl;
#X obj 372 322 catch~ busr;
#X msg 84 52 90 78 83 71;
#X msg 216 39 90 88 83 76;
#X obj 200 403 dac~;
#X msg 368 138 78 80 82 83;
#X msg 477 129 85 87 89 90;
#X text 647 543 dependencies: steventiles \, stevpan;
#X text 632 479 subharmonic intermodulation and diffusion in stereo
;
#X connect 0 0 3 0;
#X connect 0 1 2 0;
#X connect 1 0 0 0;
#X connect 4 0 7 0;
#X connect 4 1 6 0;
#X connect 5 0 4 0;
#X connect 8 0 11 0;
#X connect 8 1 10 0;
#X connect 9 0 8 0;
#X connect 12 0 15 0;
#X connect 12 1 14 0;
#X connect 13 0 12 0;
#X connect 16 0 20 0;
#X connect 17 0 20 1;
#X connect 18 0 9 0;
#X connect 18 0 13 0;
#X connect 18 0 1 0;
#X connect 18 0 5 0;
#X connect 19 0 13 0;
#X connect 19 0 9 0;
#X connect 21 0 1 0;
#X connect 22 0 5 0;
