#N canvas 817 104 450 300 10;
#X obj 49 101 phasor~;
#X obj 49 123 *~ 0.5;
#X obj 49 165 cos~;
#X obj 49 191 *~;
#X obj 49 144 -~ 0.25;
#X obj 83 165 samphold~;
#X obj 98 145 r~ sourcenoise;
#X obj 49 18 r rands;
#X obj 49 39 random 500;
#X obj 49 60 + 100;
#X obj 49 80 / 100;
#X obj 49 212 throw~ busserr;
#X obj 83 186 vd~ magnr 2000;
#X connect 0 0 1 0;
#X connect 0 0 5 1;
#X connect 1 0 4 0;
#X connect 2 0 3 0;
#X connect 3 0 11 0;
#X connect 4 0 2 0;
#X connect 5 0 12 0;
#X connect 6 0 5 0;
#X connect 7 0 8 0;
#X connect 8 0 9 0;
#X connect 9 0 10 0;
#X connect 10 0 0 0;
#X connect 12 0 3 1;
